<?xml version="1.0" encoding="utf-8" standalone="no"?>
<!DOCTYPE svg PUBLIC "-//W3C//DTD SVG 1.1//EN"
  "http://www.w3.org/Graphics/SVG/1.1/DTD/svg11.dtd">
<!-- Created with matplotlib (https://matplotlib.org/) -->
<svg height="288pt" version="1.1" viewBox="0 0 432 288" width="432pt" xmlns="http://www.w3.org/2000/svg" xmlns:xlink="http://www.w3.org/1999/xlink">
 <metadata>
  <rdf:RDF xmlns:cc="http://creativecommons.org/ns#" xmlns:dc="http://purl.org/dc/elements/1.1/" xmlns:rdf="http://www.w3.org/1999/02/22-rdf-syntax-ns#">
   <cc:Work>
    <dc:type rdf:resource="http://purl.org/dc/dcmitype/StillImage"/>
    <dc:date>2021-03-05T22:24:12.010198</dc:date>
    <dc:format>image/svg+xml</dc:format>
    <dc:creator>
     <cc:Agent>
      <dc:title>Matplotlib v3.3.2, https://matplotlib.org/</dc:title>
     </cc:Agent>
    </dc:creator>
   </cc:Work>
  </rdf:RDF>
 </metadata>
 <defs>
  <style type="text/css">*{stroke-linecap:butt;stroke-linejoin:round;}</style>
 </defs>
 <g id="figure_1">
  <g id="patch_1">
   <path d="M 0 288 
L 432 288 
L 432 0 
L 0 0 
z
" style="fill:#ffffff;"/>
  </g>
  <g id="patch_2">
   <path d="M 112.68 252 
L 330.12 252 
L 330.12 34.56 
L 112.68 34.56 
z
" style="fill:#ffffff;"/>
  </g>
  <g id="pane3d_1">
   <g id="patch_3">
    <path d="M 129.09822 198.386264 
L 200.904009 138.197228 
L 199.90584 51.393878 
L 124.663773 106.302111 
" style="fill:#f2f2f2;opacity:0.5;stroke:#f2f2f2;stroke-linejoin:miter;"/>
   </g>
  </g>
  <g id="pane3d_2">
   <g id="patch_4">
    <path d="M 200.904009 138.197228 
L 316.12668 171.68791 
L 320.238571 81.894718 
L 199.90584 51.393878 
" style="fill:#e6e6e6;opacity:0.5;stroke:#e6e6e6;stroke-linejoin:miter;"/>
   </g>
  </g>
  <g id="pane3d_3">
   <g id="patch_5">
    <path d="M 129.09822 198.386264 
L 251.239879 238.27773 
L 316.12668 171.68791 
L 200.904009 138.197228 
" style="fill:#ececec;opacity:0.5;stroke:#ececec;stroke-linejoin:miter;"/>
   </g>
  </g>
  <g id="axis3d_1">
   <g id="line2d_1">
    <path d="M 129.09822 198.386264 
L 251.239879 238.27773 
" style="fill:none;stroke:#000000;stroke-linecap:square;stroke-width:0.8;"/>
   </g>
   <g id="text_1">
    <!-- $\lambda_1 - 1$ -->
    <g transform="translate(157.454479 251.218653)rotate(-341.912962)scale(0.1 -0.1)">
     <defs>
      <path d="M 36.71875 67.4375 
L 48.828125 0 
L 39.3125 0 
L 31.84375 40.4375 
L 5.125 0 
L -4.390625 0 
L 29.734375 52.4375 
L 28.03125 62.109375 
Q 26.953125 68.265625 21.734375 68.265625 
L 17.046875 68.265625 
L 18.5 75.984375 
L 24.21875 75.875 
Q 35.203125 75.734375 36.71875 67.4375 
z
" id="DejaVuSans-Oblique-955"/>
      <path d="M 12.40625 8.296875 
L 28.515625 8.296875 
L 28.515625 63.921875 
L 10.984375 60.40625 
L 10.984375 69.390625 
L 28.421875 72.90625 
L 38.28125 72.90625 
L 38.28125 8.296875 
L 54.390625 8.296875 
L 54.390625 0 
L 12.40625 0 
z
" id="DejaVuSans-49"/>
      <path d="M 10.59375 35.5 
L 73.1875 35.5 
L 73.1875 27.203125 
L 10.59375 27.203125 
z
" id="DejaVuSans-8722"/>
     </defs>
     <use transform="translate(0 0.015625)" xlink:href="#DejaVuSans-Oblique-955"/>
     <use transform="translate(59.179688 -16.390625)scale(0.7)" xlink:href="#DejaVuSans-49"/>
     <use transform="translate(125.932617 0.015625)" xlink:href="#DejaVuSans-8722"/>
     <use transform="translate(229.204102 0.015625)" xlink:href="#DejaVuSans-49"/>
    </g>
   </g>
   <g id="Line3DCollection_1">
    <path d="M 158.21381 207.895416 
L 228.462746 146.207465 
L 228.640591 58.6773 
" style="fill:none;stroke:#b0b0b0;stroke-width:0.8;"/>
    <path d="M 188.559153 217.806205 
L 257.123742 154.538085 
L 258.555417 66.259836 
" style="fill:none;stroke:#b0b0b0;stroke-width:0.8;"/>
    <path d="M 219.721484 227.983822 
L 286.491009 163.07399 
L 289.240017 74.037488 
" style="fill:none;stroke:#b0b0b0;stroke-width:0.8;"/>
   </g>
   <g id="xtick_1">
    <g id="line2d_2">
     <path d="M 158.826011 207.357822 
L 156.986756 208.972933 
" style="fill:none;stroke:#000000;stroke-linecap:square;stroke-width:0.8;"/>
    </g>
    <g id="text_2">
     <!-- −2 -->
     <g transform="translate(143.334582 231.401861)scale(0.1 -0.1)">
      <defs>
       <path d="M 19.1875 8.296875 
L 53.609375 8.296875 
L 53.609375 0 
L 7.328125 0 
L 7.328125 8.296875 
Q 12.9375 14.109375 22.625 23.890625 
Q 32.328125 33.6875 34.8125 36.53125 
Q 39.546875 41.84375 41.421875 45.53125 
Q 43.3125 49.21875 43.3125 52.78125 
Q 43.3125 58.59375 39.234375 62.25 
Q 35.15625 65.921875 28.609375 65.921875 
Q 23.96875 65.921875 18.8125 64.3125 
Q 13.671875 62.703125 7.8125 59.421875 
L 7.8125 69.390625 
Q 13.765625 71.78125 18.9375 73 
Q 24.125 74.21875 28.421875 74.21875 
Q 39.75 74.21875 46.484375 68.546875 
Q 53.21875 62.890625 53.21875 53.421875 
Q 53.21875 48.921875 51.53125 44.890625 
Q 49.859375 40.875 45.40625 35.40625 
Q 44.1875 33.984375 37.640625 27.21875 
Q 31.109375 20.453125 19.1875 8.296875 
z
" id="DejaVuSans-50"/>
      </defs>
      <use xlink:href="#DejaVuSans-8722"/>
      <use x="83.789062" xlink:href="#DejaVuSans-50"/>
     </g>
    </g>
   </g>
   <g id="xtick_2">
    <g id="line2d_3">
     <path d="M 189.157326 217.25424 
L 187.360182 218.912558 
" style="fill:none;stroke:#000000;stroke-linecap:square;stroke-width:0.8;"/>
    </g>
    <g id="text_3">
     <!-- −1 -->
     <g transform="translate(173.721092 241.571103)scale(0.1 -0.1)">
      <use xlink:href="#DejaVuSans-8722"/>
      <use x="83.789062" xlink:href="#DejaVuSans-49"/>
     </g>
    </g>
   </g>
   <g id="xtick_3">
    <g id="line2d_4">
     <path d="M 220.304646 227.416902 
L 218.552564 229.120185 
" style="fill:none;stroke:#000000;stroke-linecap:square;stroke-width:0.8;"/>
    </g>
    <g id="text_4">
     <!-- 0 -->
     <g transform="translate(209.119404 252.015425)scale(0.1 -0.1)">
      <defs>
       <path d="M 31.78125 66.40625 
Q 24.171875 66.40625 20.328125 58.90625 
Q 16.5 51.421875 16.5 36.375 
Q 16.5 21.390625 20.328125 13.890625 
Q 24.171875 6.390625 31.78125 6.390625 
Q 39.453125 6.390625 43.28125 13.890625 
Q 47.125 21.390625 47.125 36.375 
Q 47.125 51.421875 43.28125 58.90625 
Q 39.453125 66.40625 31.78125 66.40625 
z
M 31.78125 74.21875 
Q 44.046875 74.21875 50.515625 64.515625 
Q 56.984375 54.828125 56.984375 36.375 
Q 56.984375 17.96875 50.515625 8.265625 
Q 44.046875 -1.421875 31.78125 -1.421875 
Q 19.53125 -1.421875 13.0625 8.265625 
Q 6.59375 17.96875 6.59375 36.375 
Q 6.59375 54.828125 13.0625 64.515625 
Q 19.53125 74.21875 31.78125 74.21875 
z
" id="DejaVuSans-48"/>
      </defs>
      <use xlink:href="#DejaVuSans-48"/>
     </g>
    </g>
   </g>
  </g>
  <g id="axis3d_2">
   <g id="line2d_5">
    <path d="M 316.12668 171.68791 
L 251.239879 238.27773 
" style="fill:none;stroke:#000000;stroke-linecap:square;stroke-width:0.8;"/>
   </g>
   <g id="text_5">
    <!-- $\lambda_2 - 1$ -->
    <g transform="translate(303.865663 243.929567)rotate(-45.742112)scale(0.1 -0.1)">
     <use transform="translate(0 0.015625)" xlink:href="#DejaVuSans-Oblique-955"/>
     <use transform="translate(59.179688 -16.390625)scale(0.7)" xlink:href="#DejaVuSans-50"/>
     <use transform="translate(125.932617 0.015625)" xlink:href="#DejaVuSans-8722"/>
     <use transform="translate(229.204102 0.015625)" xlink:href="#DejaVuSans-49"/>
    </g>
   </g>
   <g id="Line3DCollection_2">
    <path d="M 136.323475 97.793391 
L 140.18977 189.089107 
L 261.300154 227.953413 
" style="fill:none;stroke:#b0b0b0;stroke-width:0.8;"/>
    <path d="M 150.362785 87.548143 
L 153.562284 177.88 
L 273.411055 215.524649 
" style="fill:none;stroke:#b0b0b0;stroke-width:0.8;"/>
    <path d="M 163.956978 77.627719 
L 166.528883 167.01114 
L 285.13532 203.492669 
" style="fill:none;stroke:#b0b0b0;stroke-width:0.8;"/>
    <path d="M 177.126894 68.016915 
L 179.107771 156.467267 
L 296.491172 191.838771 
" style="fill:none;stroke:#b0b0b0;stroke-width:0.8;"/>
    <path d="M 189.89209 58.701456 
L 191.316082 146.234019 
L 307.495707 180.545411 
" style="fill:none;stroke:#b0b0b0;stroke-width:0.8;"/>
   </g>
   <g id="xtick_4">
    <g id="line2d_6">
     <path d="M 260.279936 227.626025 
L 263.343209 228.609029 
" style="fill:none;stroke:#000000;stroke-linecap:square;stroke-width:0.8;"/>
    </g>
    <g id="text_6">
     <!-- −2.0 -->
     <g transform="translate(261.949684 248.873285)scale(0.1 -0.1)">
      <defs>
       <path d="M 10.6875 12.40625 
L 21 12.40625 
L 21 0 
L 10.6875 0 
z
" id="DejaVuSans-46"/>
      </defs>
      <use xlink:href="#DejaVuSans-8722"/>
      <use x="83.789062" xlink:href="#DejaVuSans-50"/>
      <use x="147.412109" xlink:href="#DejaVuSans-46"/>
      <use x="179.199219" xlink:href="#DejaVuSans-48"/>
     </g>
    </g>
   </g>
   <g id="xtick_5">
    <g id="line2d_7">
     <path d="M 272.402289 215.207794 
L 275.431136 216.159159 
" style="fill:none;stroke:#000000;stroke-linecap:square;stroke-width:0.8;"/>
    </g>
    <g id="text_7">
     <!-- −1.5 -->
     <g transform="translate(273.86162 236.219381)scale(0.1 -0.1)">
      <defs>
       <path d="M 10.796875 72.90625 
L 49.515625 72.90625 
L 49.515625 64.59375 
L 19.828125 64.59375 
L 19.828125 46.734375 
Q 21.96875 47.46875 24.109375 47.828125 
Q 26.265625 48.1875 28.421875 48.1875 
Q 40.625 48.1875 47.75 41.5 
Q 54.890625 34.8125 54.890625 23.390625 
Q 54.890625 11.625 47.5625 5.09375 
Q 40.234375 -1.421875 26.90625 -1.421875 
Q 22.3125 -1.421875 17.546875 -0.640625 
Q 12.796875 0.140625 7.71875 1.703125 
L 7.71875 11.625 
Q 12.109375 9.234375 16.796875 8.0625 
Q 21.484375 6.890625 26.703125 6.890625 
Q 35.15625 6.890625 40.078125 11.328125 
Q 45.015625 15.765625 45.015625 23.390625 
Q 45.015625 31 40.078125 35.4375 
Q 35.15625 39.890625 26.703125 39.890625 
Q 22.75 39.890625 18.8125 39.015625 
Q 14.890625 38.140625 10.796875 36.28125 
z
" id="DejaVuSans-53"/>
      </defs>
      <use xlink:href="#DejaVuSans-8722"/>
      <use x="83.789062" xlink:href="#DejaVuSans-49"/>
      <use x="147.412109" xlink:href="#DejaVuSans-46"/>
      <use x="179.199219" xlink:href="#DejaVuSans-53"/>
     </g>
    </g>
   </g>
   <g id="xtick_6">
    <g id="line2d_8">
     <path d="M 284.137799 203.185847 
L 287.13284 204.107076 
" style="fill:none;stroke:#000000;stroke-linecap:square;stroke-width:0.8;"/>
    </g>
    <g id="text_8">
     <!-- −1.0 -->
     <g transform="translate(285.393002 223.969733)scale(0.1 -0.1)">
      <use xlink:href="#DejaVuSans-8722"/>
      <use x="83.789062" xlink:href="#DejaVuSans-49"/>
      <use x="147.412109" xlink:href="#DejaVuSans-46"/>
      <use x="179.199219" xlink:href="#DejaVuSans-48"/>
     </g>
    </g>
   </g>
   <g id="xtick_7">
    <g id="line2d_9">
     <path d="M 295.504694 191.541513 
L 298.466541 192.434015 
" style="fill:none;stroke:#000000;stroke-linecap:square;stroke-width:0.8;"/>
    </g>
    <g id="text_9">
     <!-- −0.5 -->
     <g transform="translate(296.561781 212.105274)scale(0.1 -0.1)">
      <use xlink:href="#DejaVuSans-8722"/>
      <use x="83.789062" xlink:href="#DejaVuSans-48"/>
      <use x="147.412109" xlink:href="#DejaVuSans-46"/>
      <use x="179.199219" xlink:href="#DejaVuSans-53"/>
     </g>
    </g>
   </g>
   <g id="xtick_8">
    <g id="line2d_10">
     <path d="M 306.520071 180.257276 
L 309.449329 181.122375 
" style="fill:none;stroke:#000000;stroke-linecap:square;stroke-width:0.8;"/>
    </g>
    <g id="text_10">
     <!-- 0.0 -->
     <g transform="translate(311.574639 200.608116)scale(0.1 -0.1)">
      <use xlink:href="#DejaVuSans-48"/>
      <use x="63.623047" xlink:href="#DejaVuSans-46"/>
      <use x="95.410156" xlink:href="#DejaVuSans-48"/>
     </g>
    </g>
   </g>
  </g>
  <g id="axis3d_3">
   <g id="line2d_11">
    <path d="M 316.12668 171.68791 
L 320.238571 81.894718 
" style="fill:none;stroke:#000000;stroke-linecap:square;stroke-width:0.8;"/>
   </g>
   <g id="text_11">
    <!-- LPF -->
    <g transform="translate(349.776935 125.132978)scale(0.1 -0.1)">
     <defs>
      <path d="M 9.8125 72.90625 
L 19.671875 72.90625 
L 19.671875 8.296875 
L 55.171875 8.296875 
L 55.171875 0 
L 9.8125 0 
z
" id="DejaVuSans-76"/>
      <path d="M 19.671875 64.796875 
L 19.671875 37.40625 
L 32.078125 37.40625 
Q 38.96875 37.40625 42.71875 40.96875 
Q 46.484375 44.53125 46.484375 51.125 
Q 46.484375 57.671875 42.71875 61.234375 
Q 38.96875 64.796875 32.078125 64.796875 
z
M 9.8125 72.90625 
L 32.078125 72.90625 
Q 44.34375 72.90625 50.609375 67.359375 
Q 56.890625 61.8125 56.890625 51.125 
Q 56.890625 40.328125 50.609375 34.8125 
Q 44.34375 29.296875 32.078125 29.296875 
L 19.671875 29.296875 
L 19.671875 0 
L 9.8125 0 
z
" id="DejaVuSans-80"/>
      <path d="M 9.8125 72.90625 
L 51.703125 72.90625 
L 51.703125 64.59375 
L 19.671875 64.59375 
L 19.671875 43.109375 
L 48.578125 43.109375 
L 48.578125 34.8125 
L 19.671875 34.8125 
L 19.671875 0 
L 9.8125 0 
z
" id="DejaVuSans-70"/>
     </defs>
     <use xlink:href="#DejaVuSans-76"/>
     <use x="55.712891" xlink:href="#DejaVuSans-80"/>
     <use x="116.015625" xlink:href="#DejaVuSans-70"/>
    </g>
   </g>
   <g id="Line3DCollection_3">
    <path d="M 316.643434 160.403325 
L 200.778334 127.268235 
L 128.54175 186.830818 
" style="fill:none;stroke:#b0b0b0;stroke-width:0.8;"/>
    <path d="M 317.384519 144.219913 
L 200.598218 111.604909 
L 127.743297 170.250412 
" style="fill:none;stroke:#b0b0b0;stroke-width:0.8;"/>
    <path d="M 318.137601 127.774536 
L 200.415327 95.700246 
L 126.931421 153.391292 
" style="fill:none;stroke:#b0b0b0;stroke-width:0.8;"/>
    <path d="M 318.902972 111.060781 
L 200.229597 79.548626 
L 126.105782 136.246371 
" style="fill:none;stroke:#b0b0b0;stroke-width:0.8;"/>
    <path d="M 319.680937 94.072024 
L 200.040959 63.144252 
L 125.266028 118.808318 
" style="fill:none;stroke:#b0b0b0;stroke-width:0.8;"/>
   </g>
   <g id="xtick_9">
    <g id="line2d_12">
     <path d="M 315.670751 160.125157 
L 318.591127 160.960327 
" style="fill:none;stroke:#000000;stroke-linecap:square;stroke-width:0.8;"/>
    </g>
    <g id="text_12">
     <!-- −4 -->
     <g transform="translate(327.609125 165.425522)scale(0.1 -0.1)">
      <defs>
       <path d="M 37.796875 64.3125 
L 12.890625 25.390625 
L 37.796875 25.390625 
z
M 35.203125 72.90625 
L 47.609375 72.90625 
L 47.609375 25.390625 
L 58.015625 25.390625 
L 58.015625 17.1875 
L 47.609375 17.1875 
L 47.609375 0 
L 37.796875 0 
L 37.796875 17.1875 
L 4.890625 17.1875 
L 4.890625 26.703125 
z
" id="DejaVuSans-52"/>
      </defs>
      <use xlink:href="#DejaVuSans-8722"/>
      <use x="83.789062" xlink:href="#DejaVuSans-52"/>
     </g>
    </g>
   </g>
   <g id="xtick_10">
    <g id="line2d_13">
     <path d="M 316.403732 143.946008 
L 319.348458 144.768384 
" style="fill:none;stroke:#000000;stroke-linecap:square;stroke-width:0.8;"/>
    </g>
    <g id="text_13">
     <!-- −2 -->
     <g transform="translate(328.494128 149.281656)scale(0.1 -0.1)">
      <use xlink:href="#DejaVuSans-8722"/>
      <use x="83.789062" xlink:href="#DejaVuSans-50"/>
     </g>
    </g>
   </g>
   <g id="xtick_11">
    <g id="line2d_14">
     <path d="M 317.148574 127.505068 
L 320.118058 128.314126 
" style="fill:none;stroke:#000000;stroke-linecap:square;stroke-width:0.8;"/>
    </g>
    <g id="text_14">
     <!-- 0 -->
     <g transform="translate(333.583247 132.877444)scale(0.1 -0.1)">
      <use xlink:href="#DejaVuSans-48"/>
     </g>
    </g>
   </g>
   <g id="xtick_12">
    <g id="line2d_15">
     <path d="M 317.905567 110.795933 
L 320.900228 111.591125 
" style="fill:none;stroke:#000000;stroke-linecap:square;stroke-width:0.8;"/>
    </g>
    <g id="text_15">
     <!-- 2 -->
     <g transform="translate(334.497143 116.206537)scale(0.1 -0.1)">
      <use xlink:href="#DejaVuSans-50"/>
     </g>
    </g>
   </g>
   <g id="xtick_13">
    <g id="line2d_16">
     <path d="M 318.675009 93.811984 
L 321.695278 94.592745 
" style="fill:none;stroke:#000000;stroke-linecap:square;stroke-width:0.8;"/>
    </g>
    <g id="text_16">
     <!-- 4 -->
     <g transform="translate(335.426018 99.262378)scale(0.1 -0.1)">
      <use xlink:href="#DejaVuSans-52"/>
     </g>
    </g>
   </g>
  </g>
  <g id="axes_1">
   <g id="line2d_17">
    <defs>
     <path d="M 0 3 
C 0.795609 3 1.55874 2.683901 2.12132 2.12132 
C 2.683901 1.55874 3 0.795609 3 0 
C 3 -0.795609 2.683901 -1.55874 2.12132 -2.12132 
C 1.55874 -2.683901 0.795609 -3 0 -3 
C -0.795609 -3 -1.55874 -2.683901 -2.12132 -2.12132 
C -2.683901 -1.55874 -3 -0.795609 -3 0 
C -3 0.795609 -2.683901 1.55874 -2.12132 2.12132 
C -1.55874 2.683901 -0.795609 3 0 3 
z
" id="mb31b9b66c8" style="stroke:#1f77b4;"/>
    </defs>
    <g clip-path="url(#p92533e0ef4)">
     <use style="fill:#1f77b4;stroke:#1f77b4;" x="278.767777" xlink:href="#mb31b9b66c8" y="127.801988"/>
    </g>
   </g>
   <g id="line2d_18">
    <path clip-path="url(#p92533e0ef4)" d="M 278.767777 127.801988 
L 279.090297 127.696786 
L 279.39483 127.581409 
L 279.683352 127.456998 
L 280.023951 127.290211 
L 280.422031 127.066256 
L 280.882101 126.765495 
L 281.407129 126.362117 
L 281.9977 125.822585 
L 282.650834 125.103846 
L 283.358207 124.151412 
L 284.10319 122.897572 
L 284.855435 121.26052 
L 285.530303 119.25356 
L 286.037077 116.94975 
L 286.275593 114.66102 
L 286.212888 112.455576 
L 285.750948 110.447367 
L 284.598853 108.913646 
L 283.435931 108.6204 
L 282.437442 108.833055 
L 281.62906 109.21158 
L 280.980744 109.617469 
L 280.280194 110.140193 
L 279.537932 110.774596 
L 278.500496 111.777246 
L 277.02993 113.385524 
L 275.778982 114.890599 
L 274.710235 116.256224 
L 273.664842 117.650608 
L 272.550238 119.190317 
L 271.339857 120.913105 
L 270.007318 122.858408 
L 268.523723 125.069677 
L 266.855363 127.59607 
L 264.96109 130.493935 
L 262.788665 133.828236 
L 260.269016 137.673972 
L 257.3063 142.117479 
L 253.758822 147.257297 
L 249.870902 152.580972 
L 245.748726 157.784755 
L 241.233152 162.873914 
L 236.036856 167.837739 
L 229.449027 172.625266 
L 224.907965 174.89088 
L 221.802348 175.943836 
L 216.7254 176.798827 
L 211.869189 176.633578 
L 206.079718 175.250612 
L 202.609568 173.853852 
L 199.780697 172.43242 
L 197.341483 171.023665 
L 194.713656 169.339171 
" style="fill:none;stroke:#1f77b4;stroke-linecap:square;stroke-width:1.5;"/>
   </g>
   <g id="line2d_19">
    <path clip-path="url(#p92533e0ef4)" d="M 191.785654 167.291589 
L 188.371628 164.735486 
L 186.271435 163.107837 
L 183.99967 161.332996 
L 181.332653 159.278905 
L 178.026082 156.883615 
L 174.230995 154.581637 
L 173.12919 154.060676 
L 172.072812 153.649129 
L 171.292175 153.411392 
L 170.553325 153.247841 
L 169.838276 153.156034 
L 169.137887 153.140565 
L 168.415046 153.216639 
L 167.674867 153.412665 
L 166.959935 153.744804 
L 166.274949 154.235453 
L 165.629088 154.911677 
L 165.036877 155.805012 
L 164.519929 156.950909 
L 164.110123 158.387232 
L 163.855552 160.150614 
L 163.829379 162.205913 
L 164.071244 164.230306 
L 164.595876 166.162514 
L 165.465385 167.915885 
L 166.848773 169.321958 
L 167.875117 169.768038 
L 169.376377 169.826328 
L 170.547282 169.504148 
L 171.432791 169.089966 
L 172.093327 168.698731 
L 172.464947 168.450619 
L 172.843574 168.17848 
L 173.229203 167.882292 
L 173.74597 167.457038 
L 174.44257 166.836045 
L 175.388583 165.913019 
L 176.495306 164.730036 
L 177.314872 163.790899 
L 178.088148 162.861194 
L 178.890179 161.856809 
L 179.740222 160.752496 
L 180.654993 159.52369 
L 181.65103 158.144334 
L 182.746143 156.585494 
L 183.960617 154.814242 
L 185.318514 152.792568 
L 186.849341 150.476232 
L 188.590432 147.813473 
L 190.59063 144.74355 
L 192.916381 141.195086 
L 195.662676 137.084295 
L 198.97477 132.313323 
L 202.521201 127.514438 
L 206.33235 122.80011 
L 210.587976 118.166589 
L 215.642645 113.627639 
L 222.550054 109.254767 
L 228.385949 107.265605 
L 230.707992 106.907357 
L 232.981698 106.790663 
L 235.20923 106.895828 
L 238.065862 107.337994 
L 241.705124 108.374911 
L 243.918858 109.247123 
L 245.839567 110.139889 
L 247.531167 111.022737 
L 249.451422 112.124702 
" style="fill:none;stroke:#1f77b4;stroke-dasharray:5.55,2.4;stroke-dashoffset:0;stroke-width:1.5;"/>
   </g>
   <g id="line2d_20">
    <path clip-path="url(#p92533e0ef4)" d="M 251.560789 113.443448 
L 253.934266 115.040637 
L 256.696469 117.012152 
L 260.118038 119.543296 
L 262.280832 121.142351 
L 264.772701 122.927117 
L 267.186781 124.537339 
L 270.234876 126.289896 
L 273.843617 127.724224 
L 276.491402 128.113279 
L 278.169689 127.953651 
L 279.58055 127.503057 
L 280.888291 126.761124 
L 282.116332 125.70215 
L 283.267136 124.285642 
L 284.32491 122.461165 
L 285.23131 120.231172 
L 285.852394 117.9378 
L 286.207402 115.635499 
L 286.280774 113.384228 
L 286.008717 111.272043 
L 285.215006 109.477428 
L 284.469284 108.840313 
L 283.196235 108.640525 
L 282.020272 109.008872 
L 280.848119 109.710161 
L 280.139472 110.254505 
L 279.389126 110.910622 
L 278.597127 111.678776 
L 277.494408 112.856782 
L 276.399342 114.130373 
L 275.481766 115.263643 
L 274.593772 116.408892 
L 273.654814 117.664232 
L 272.642816 119.060589 
L 271.536862 120.629547 
L 270.314904 122.405495 
L 268.952105 124.427107 
L 267.419212 126.73861 
L 265.680548 129.39101 
L 263.691199 132.44337 
L 261.392684 135.964121 
L 258.705707 140.032384 
L 255.516945 144.739084 
L 251.698689 150.12371 
L 247.701121 155.38178 
L 243.393362 160.524354 
L 238.563636 165.549224 
L 232.769021 170.430326 
L 224.518328 175.045164 
L 221.267621 176.084372 
" style="fill:none;stroke:#1f77b4;stroke-linecap:square;stroke-width:1.5;"/>
   </g>
  </g>
 </g>
 <defs>
  <clipPath id="p92533e0ef4">
   <rect height="217.44" width="217.44" x="112.68" y="34.56"/>
  </clipPath>
 </defs>
</svg>
