<?xml version="1.0" encoding="utf-8" standalone="no"?>
<!DOCTYPE svg PUBLIC "-//W3C//DTD SVG 1.1//EN"
  "http://www.w3.org/Graphics/SVG/1.1/DTD/svg11.dtd">
<!-- Created with matplotlib (https://matplotlib.org/) -->
<svg height="288pt" version="1.1" viewBox="0 0 432 288" width="432pt" xmlns="http://www.w3.org/2000/svg" xmlns:xlink="http://www.w3.org/1999/xlink">
 <metadata>
  <rdf:RDF xmlns:cc="http://creativecommons.org/ns#" xmlns:dc="http://purl.org/dc/elements/1.1/" xmlns:rdf="http://www.w3.org/1999/02/22-rdf-syntax-ns#">
   <cc:Work>
    <dc:type rdf:resource="http://purl.org/dc/dcmitype/StillImage"/>
    <dc:date>2021-03-05T15:47:42.447972</dc:date>
    <dc:format>image/svg+xml</dc:format>
    <dc:creator>
     <cc:Agent>
      <dc:title>Matplotlib v3.3.2, https://matplotlib.org/</dc:title>
     </cc:Agent>
    </dc:creator>
   </cc:Work>
  </rdf:RDF>
 </metadata>
 <defs>
  <style type="text/css">*{stroke-linecap:butt;stroke-linejoin:round;}</style>
 </defs>
 <g id="figure_1">
  <g id="patch_1">
   <path d="M 0 288 
L 432 288 
L 432 0 
L 0 0 
z
" style="fill:#ffffff;"/>
  </g>
  <g id="axes_1">
   <g id="patch_2">
    <path d="M 54 252 
L 388.8 252 
L 388.8 34.56 
L 54 34.56 
z
" style="fill:#ffffff;"/>
   </g>
   <g id="matplotlib.axis_1">
    <g id="xtick_1">
     <g id="line2d_1">
      <defs>
       <path d="M 0 0 
L 0 3.5 
" id="mddf4bc954e" style="stroke:#000000;stroke-width:0.8;"/>
      </defs>
      <g>
       <use style="stroke:#000000;stroke-width:0.8;" x="97.12571" xlink:href="#mddf4bc954e" y="252"/>
      </g>
     </g>
     <g id="text_1">
      <!-- −1.0 -->
      <g transform="translate(84.984304 266.598437)scale(0.1 -0.1)">
       <defs>
        <path d="M 10.59375 35.5 
L 73.1875 35.5 
L 73.1875 27.203125 
L 10.59375 27.203125 
z
" id="DejaVuSans-8722"/>
        <path d="M 12.40625 8.296875 
L 28.515625 8.296875 
L 28.515625 63.921875 
L 10.984375 60.40625 
L 10.984375 69.390625 
L 28.421875 72.90625 
L 38.28125 72.90625 
L 38.28125 8.296875 
L 54.390625 8.296875 
L 54.390625 0 
L 12.40625 0 
z
" id="DejaVuSans-49"/>
        <path d="M 10.6875 12.40625 
L 21 12.40625 
L 21 0 
L 10.6875 0 
z
" id="DejaVuSans-46"/>
        <path d="M 31.78125 66.40625 
Q 24.171875 66.40625 20.328125 58.90625 
Q 16.5 51.421875 16.5 36.375 
Q 16.5 21.390625 20.328125 13.890625 
Q 24.171875 6.390625 31.78125 6.390625 
Q 39.453125 6.390625 43.28125 13.890625 
Q 47.125 21.390625 47.125 36.375 
Q 47.125 51.421875 43.28125 58.90625 
Q 39.453125 66.40625 31.78125 66.40625 
z
M 31.78125 74.21875 
Q 44.046875 74.21875 50.515625 64.515625 
Q 56.984375 54.828125 56.984375 36.375 
Q 56.984375 17.96875 50.515625 8.265625 
Q 44.046875 -1.421875 31.78125 -1.421875 
Q 19.53125 -1.421875 13.0625 8.265625 
Q 6.59375 17.96875 6.59375 36.375 
Q 6.59375 54.828125 13.0625 64.515625 
Q 19.53125 74.21875 31.78125 74.21875 
z
" id="DejaVuSans-48"/>
       </defs>
       <use xlink:href="#DejaVuSans-8722"/>
       <use x="83.789062" xlink:href="#DejaVuSans-49"/>
       <use x="147.412109" xlink:href="#DejaVuSans-46"/>
       <use x="179.199219" xlink:href="#DejaVuSans-48"/>
      </g>
     </g>
    </g>
    <g id="xtick_2">
     <g id="line2d_2">
      <g>
       <use style="stroke:#000000;stroke-width:0.8;" x="159.259235" xlink:href="#mddf4bc954e" y="252"/>
      </g>
     </g>
     <g id="text_2">
      <!-- −0.5 -->
      <g transform="translate(147.117829 266.598437)scale(0.1 -0.1)">
       <defs>
        <path d="M 10.796875 72.90625 
L 49.515625 72.90625 
L 49.515625 64.59375 
L 19.828125 64.59375 
L 19.828125 46.734375 
Q 21.96875 47.46875 24.109375 47.828125 
Q 26.265625 48.1875 28.421875 48.1875 
Q 40.625 48.1875 47.75 41.5 
Q 54.890625 34.8125 54.890625 23.390625 
Q 54.890625 11.625 47.5625 5.09375 
Q 40.234375 -1.421875 26.90625 -1.421875 
Q 22.3125 -1.421875 17.546875 -0.640625 
Q 12.796875 0.140625 7.71875 1.703125 
L 7.71875 11.625 
Q 12.109375 9.234375 16.796875 8.0625 
Q 21.484375 6.890625 26.703125 6.890625 
Q 35.15625 6.890625 40.078125 11.328125 
Q 45.015625 15.765625 45.015625 23.390625 
Q 45.015625 31 40.078125 35.4375 
Q 35.15625 39.890625 26.703125 39.890625 
Q 22.75 39.890625 18.8125 39.015625 
Q 14.890625 38.140625 10.796875 36.28125 
z
" id="DejaVuSans-53"/>
       </defs>
       <use xlink:href="#DejaVuSans-8722"/>
       <use x="83.789062" xlink:href="#DejaVuSans-48"/>
       <use x="147.412109" xlink:href="#DejaVuSans-46"/>
       <use x="179.199219" xlink:href="#DejaVuSans-53"/>
      </g>
     </g>
    </g>
    <g id="xtick_3">
     <g id="line2d_3">
      <g>
       <use style="stroke:#000000;stroke-width:0.8;" x="221.392761" xlink:href="#mddf4bc954e" y="252"/>
      </g>
     </g>
     <g id="text_3">
      <!-- 0.0 -->
      <g transform="translate(213.441198 266.598437)scale(0.1 -0.1)">
       <use xlink:href="#DejaVuSans-48"/>
       <use x="63.623047" xlink:href="#DejaVuSans-46"/>
       <use x="95.410156" xlink:href="#DejaVuSans-48"/>
      </g>
     </g>
    </g>
    <g id="xtick_4">
     <g id="line2d_4">
      <g>
       <use style="stroke:#000000;stroke-width:0.8;" x="283.526286" xlink:href="#mddf4bc954e" y="252"/>
      </g>
     </g>
     <g id="text_4">
      <!-- 0.5 -->
      <g transform="translate(275.574724 266.598437)scale(0.1 -0.1)">
       <use xlink:href="#DejaVuSans-48"/>
       <use x="63.623047" xlink:href="#DejaVuSans-46"/>
       <use x="95.410156" xlink:href="#DejaVuSans-53"/>
      </g>
     </g>
    </g>
    <g id="xtick_5">
     <g id="line2d_5">
      <g>
       <use style="stroke:#000000;stroke-width:0.8;" x="345.659812" xlink:href="#mddf4bc954e" y="252"/>
      </g>
     </g>
     <g id="text_5">
      <!-- 1.0 -->
      <g transform="translate(337.708249 266.598437)scale(0.1 -0.1)">
       <use xlink:href="#DejaVuSans-49"/>
       <use x="63.623047" xlink:href="#DejaVuSans-46"/>
       <use x="95.410156" xlink:href="#DejaVuSans-48"/>
      </g>
     </g>
    </g>
    <g id="text_6">
     <!-- transversal stretch $\lambda_2 = \lambda_3$ -->
     <g transform="translate(155.85 280.276563)scale(0.1 -0.1)">
      <defs>
       <path d="M 18.3125 70.21875 
L 18.3125 54.6875 
L 36.8125 54.6875 
L 36.8125 47.703125 
L 18.3125 47.703125 
L 18.3125 18.015625 
Q 18.3125 11.328125 20.140625 9.421875 
Q 21.96875 7.515625 27.59375 7.515625 
L 36.8125 7.515625 
L 36.8125 0 
L 27.59375 0 
Q 17.1875 0 13.234375 3.875 
Q 9.28125 7.765625 9.28125 18.015625 
L 9.28125 47.703125 
L 2.6875 47.703125 
L 2.6875 54.6875 
L 9.28125 54.6875 
L 9.28125 70.21875 
z
" id="DejaVuSans-116"/>
       <path d="M 41.109375 46.296875 
Q 39.59375 47.171875 37.8125 47.578125 
Q 36.03125 48 33.890625 48 
Q 26.265625 48 22.1875 43.046875 
Q 18.109375 38.09375 18.109375 28.8125 
L 18.109375 0 
L 9.078125 0 
L 9.078125 54.6875 
L 18.109375 54.6875 
L 18.109375 46.1875 
Q 20.953125 51.171875 25.484375 53.578125 
Q 30.03125 56 36.53125 56 
Q 37.453125 56 38.578125 55.875 
Q 39.703125 55.765625 41.0625 55.515625 
z
" id="DejaVuSans-114"/>
       <path d="M 34.28125 27.484375 
Q 23.390625 27.484375 19.1875 25 
Q 14.984375 22.515625 14.984375 16.5 
Q 14.984375 11.71875 18.140625 8.90625 
Q 21.296875 6.109375 26.703125 6.109375 
Q 34.1875 6.109375 38.703125 11.40625 
Q 43.21875 16.703125 43.21875 25.484375 
L 43.21875 27.484375 
z
M 52.203125 31.203125 
L 52.203125 0 
L 43.21875 0 
L 43.21875 8.296875 
Q 40.140625 3.328125 35.546875 0.953125 
Q 30.953125 -1.421875 24.3125 -1.421875 
Q 15.921875 -1.421875 10.953125 3.296875 
Q 6 8.015625 6 15.921875 
Q 6 25.140625 12.171875 29.828125 
Q 18.359375 34.515625 30.609375 34.515625 
L 43.21875 34.515625 
L 43.21875 35.40625 
Q 43.21875 41.609375 39.140625 45 
Q 35.0625 48.390625 27.6875 48.390625 
Q 23 48.390625 18.546875 47.265625 
Q 14.109375 46.140625 10.015625 43.890625 
L 10.015625 52.203125 
Q 14.9375 54.109375 19.578125 55.046875 
Q 24.21875 56 28.609375 56 
Q 40.484375 56 46.34375 49.84375 
Q 52.203125 43.703125 52.203125 31.203125 
z
" id="DejaVuSans-97"/>
       <path d="M 54.890625 33.015625 
L 54.890625 0 
L 45.90625 0 
L 45.90625 32.71875 
Q 45.90625 40.484375 42.875 44.328125 
Q 39.84375 48.1875 33.796875 48.1875 
Q 26.515625 48.1875 22.3125 43.546875 
Q 18.109375 38.921875 18.109375 30.90625 
L 18.109375 0 
L 9.078125 0 
L 9.078125 54.6875 
L 18.109375 54.6875 
L 18.109375 46.1875 
Q 21.34375 51.125 25.703125 53.5625 
Q 30.078125 56 35.796875 56 
Q 45.21875 56 50.046875 50.171875 
Q 54.890625 44.34375 54.890625 33.015625 
z
" id="DejaVuSans-110"/>
       <path d="M 44.28125 53.078125 
L 44.28125 44.578125 
Q 40.484375 46.53125 36.375 47.5 
Q 32.28125 48.484375 27.875 48.484375 
Q 21.1875 48.484375 17.84375 46.4375 
Q 14.5 44.390625 14.5 40.28125 
Q 14.5 37.15625 16.890625 35.375 
Q 19.28125 33.59375 26.515625 31.984375 
L 29.59375 31.296875 
Q 39.15625 29.25 43.1875 25.515625 
Q 47.21875 21.78125 47.21875 15.09375 
Q 47.21875 7.46875 41.1875 3.015625 
Q 35.15625 -1.421875 24.609375 -1.421875 
Q 20.21875 -1.421875 15.453125 -0.5625 
Q 10.6875 0.296875 5.421875 2 
L 5.421875 11.28125 
Q 10.40625 8.6875 15.234375 7.390625 
Q 20.0625 6.109375 24.8125 6.109375 
Q 31.15625 6.109375 34.5625 8.28125 
Q 37.984375 10.453125 37.984375 14.40625 
Q 37.984375 18.0625 35.515625 20.015625 
Q 33.0625 21.96875 24.703125 23.78125 
L 21.578125 24.515625 
Q 13.234375 26.265625 9.515625 29.90625 
Q 5.8125 33.546875 5.8125 39.890625 
Q 5.8125 47.609375 11.28125 51.796875 
Q 16.75 56 26.8125 56 
Q 31.78125 56 36.171875 55.265625 
Q 40.578125 54.546875 44.28125 53.078125 
z
" id="DejaVuSans-115"/>
       <path d="M 2.984375 54.6875 
L 12.5 54.6875 
L 29.59375 8.796875 
L 46.6875 54.6875 
L 56.203125 54.6875 
L 35.6875 0 
L 23.484375 0 
z
" id="DejaVuSans-118"/>
       <path d="M 56.203125 29.59375 
L 56.203125 25.203125 
L 14.890625 25.203125 
Q 15.484375 15.921875 20.484375 11.0625 
Q 25.484375 6.203125 34.421875 6.203125 
Q 39.59375 6.203125 44.453125 7.46875 
Q 49.3125 8.734375 54.109375 11.28125 
L 54.109375 2.78125 
Q 49.265625 0.734375 44.1875 -0.34375 
Q 39.109375 -1.421875 33.890625 -1.421875 
Q 20.796875 -1.421875 13.15625 6.1875 
Q 5.515625 13.8125 5.515625 26.8125 
Q 5.515625 40.234375 12.765625 48.109375 
Q 20.015625 56 32.328125 56 
Q 43.359375 56 49.78125 48.890625 
Q 56.203125 41.796875 56.203125 29.59375 
z
M 47.21875 32.234375 
Q 47.125 39.59375 43.09375 43.984375 
Q 39.0625 48.390625 32.421875 48.390625 
Q 24.90625 48.390625 20.390625 44.140625 
Q 15.875 39.890625 15.1875 32.171875 
z
" id="DejaVuSans-101"/>
       <path d="M 9.421875 75.984375 
L 18.40625 75.984375 
L 18.40625 0 
L 9.421875 0 
z
" id="DejaVuSans-108"/>
       <path id="DejaVuSans-32"/>
       <path d="M 48.78125 52.59375 
L 48.78125 44.1875 
Q 44.96875 46.296875 41.140625 47.34375 
Q 37.3125 48.390625 33.40625 48.390625 
Q 24.65625 48.390625 19.8125 42.84375 
Q 14.984375 37.3125 14.984375 27.296875 
Q 14.984375 17.28125 19.8125 11.734375 
Q 24.65625 6.203125 33.40625 6.203125 
Q 37.3125 6.203125 41.140625 7.25 
Q 44.96875 8.296875 48.78125 10.40625 
L 48.78125 2.09375 
Q 45.015625 0.34375 40.984375 -0.53125 
Q 36.96875 -1.421875 32.421875 -1.421875 
Q 20.0625 -1.421875 12.78125 6.34375 
Q 5.515625 14.109375 5.515625 27.296875 
Q 5.515625 40.671875 12.859375 48.328125 
Q 20.21875 56 33.015625 56 
Q 37.15625 56 41.109375 55.140625 
Q 45.0625 54.296875 48.78125 52.59375 
z
" id="DejaVuSans-99"/>
       <path d="M 54.890625 33.015625 
L 54.890625 0 
L 45.90625 0 
L 45.90625 32.71875 
Q 45.90625 40.484375 42.875 44.328125 
Q 39.84375 48.1875 33.796875 48.1875 
Q 26.515625 48.1875 22.3125 43.546875 
Q 18.109375 38.921875 18.109375 30.90625 
L 18.109375 0 
L 9.078125 0 
L 9.078125 75.984375 
L 18.109375 75.984375 
L 18.109375 46.1875 
Q 21.34375 51.125 25.703125 53.5625 
Q 30.078125 56 35.796875 56 
Q 45.21875 56 50.046875 50.171875 
Q 54.890625 44.34375 54.890625 33.015625 
z
" id="DejaVuSans-104"/>
       <path d="M 36.71875 67.4375 
L 48.828125 0 
L 39.3125 0 
L 31.84375 40.4375 
L 5.125 0 
L -4.390625 0 
L 29.734375 52.4375 
L 28.03125 62.109375 
Q 26.953125 68.265625 21.734375 68.265625 
L 17.046875 68.265625 
L 18.5 75.984375 
L 24.21875 75.875 
Q 35.203125 75.734375 36.71875 67.4375 
z
" id="DejaVuSans-Oblique-955"/>
       <path d="M 19.1875 8.296875 
L 53.609375 8.296875 
L 53.609375 0 
L 7.328125 0 
L 7.328125 8.296875 
Q 12.9375 14.109375 22.625 23.890625 
Q 32.328125 33.6875 34.8125 36.53125 
Q 39.546875 41.84375 41.421875 45.53125 
Q 43.3125 49.21875 43.3125 52.78125 
Q 43.3125 58.59375 39.234375 62.25 
Q 35.15625 65.921875 28.609375 65.921875 
Q 23.96875 65.921875 18.8125 64.3125 
Q 13.671875 62.703125 7.8125 59.421875 
L 7.8125 69.390625 
Q 13.765625 71.78125 18.9375 73 
Q 24.125 74.21875 28.421875 74.21875 
Q 39.75 74.21875 46.484375 68.546875 
Q 53.21875 62.890625 53.21875 53.421875 
Q 53.21875 48.921875 51.53125 44.890625 
Q 49.859375 40.875 45.40625 35.40625 
Q 44.1875 33.984375 37.640625 27.21875 
Q 31.109375 20.453125 19.1875 8.296875 
z
" id="DejaVuSans-50"/>
       <path d="M 10.59375 45.40625 
L 73.1875 45.40625 
L 73.1875 37.203125 
L 10.59375 37.203125 
z
M 10.59375 25.484375 
L 73.1875 25.484375 
L 73.1875 17.1875 
L 10.59375 17.1875 
z
" id="DejaVuSans-61"/>
       <path d="M 40.578125 39.3125 
Q 47.65625 37.796875 51.625 33 
Q 55.609375 28.21875 55.609375 21.1875 
Q 55.609375 10.40625 48.1875 4.484375 
Q 40.765625 -1.421875 27.09375 -1.421875 
Q 22.515625 -1.421875 17.65625 -0.515625 
Q 12.796875 0.390625 7.625 2.203125 
L 7.625 11.71875 
Q 11.71875 9.328125 16.59375 8.109375 
Q 21.484375 6.890625 26.8125 6.890625 
Q 36.078125 6.890625 40.9375 10.546875 
Q 45.796875 14.203125 45.796875 21.1875 
Q 45.796875 27.640625 41.28125 31.265625 
Q 36.765625 34.90625 28.71875 34.90625 
L 20.21875 34.90625 
L 20.21875 43.015625 
L 29.109375 43.015625 
Q 36.375 43.015625 40.234375 45.921875 
Q 44.09375 48.828125 44.09375 54.296875 
Q 44.09375 59.90625 40.109375 62.90625 
Q 36.140625 65.921875 28.71875 65.921875 
Q 24.65625 65.921875 20.015625 65.03125 
Q 15.375 64.15625 9.8125 62.3125 
L 9.8125 71.09375 
Q 15.4375 72.65625 20.34375 73.4375 
Q 25.25 74.21875 29.59375 74.21875 
Q 40.828125 74.21875 47.359375 69.109375 
Q 53.90625 64.015625 53.90625 55.328125 
Q 53.90625 49.265625 50.4375 45.09375 
Q 46.96875 40.921875 40.578125 39.3125 
z
" id="DejaVuSans-51"/>
      </defs>
      <use transform="translate(0 0.015625)" xlink:href="#DejaVuSans-116"/>
      <use transform="translate(39.208984 0.015625)" xlink:href="#DejaVuSans-114"/>
      <use transform="translate(80.322266 0.015625)" xlink:href="#DejaVuSans-97"/>
      <use transform="translate(141.601562 0.015625)" xlink:href="#DejaVuSans-110"/>
      <use transform="translate(204.980469 0.015625)" xlink:href="#DejaVuSans-115"/>
      <use transform="translate(257.080078 0.015625)" xlink:href="#DejaVuSans-118"/>
      <use transform="translate(316.259766 0.015625)" xlink:href="#DejaVuSans-101"/>
      <use transform="translate(377.783203 0.015625)" xlink:href="#DejaVuSans-114"/>
      <use transform="translate(418.896484 0.015625)" xlink:href="#DejaVuSans-115"/>
      <use transform="translate(470.996094 0.015625)" xlink:href="#DejaVuSans-97"/>
      <use transform="translate(532.275391 0.015625)" xlink:href="#DejaVuSans-108"/>
      <use transform="translate(560.058594 0.015625)" xlink:href="#DejaVuSans-32"/>
      <use transform="translate(591.845703 0.015625)" xlink:href="#DejaVuSans-115"/>
      <use transform="translate(643.945312 0.015625)" xlink:href="#DejaVuSans-116"/>
      <use transform="translate(683.154297 0.015625)" xlink:href="#DejaVuSans-114"/>
      <use transform="translate(724.267578 0.015625)" xlink:href="#DejaVuSans-101"/>
      <use transform="translate(785.791016 0.015625)" xlink:href="#DejaVuSans-116"/>
      <use transform="translate(825 0.015625)" xlink:href="#DejaVuSans-99"/>
      <use transform="translate(879.980469 0.015625)" xlink:href="#DejaVuSans-104"/>
      <use transform="translate(943.359375 0.015625)" xlink:href="#DejaVuSans-32"/>
      <use transform="translate(975.146484 0.015625)" xlink:href="#DejaVuSans-Oblique-955"/>
      <use transform="translate(1034.326172 -16.390625)scale(0.7)" xlink:href="#DejaVuSans-50"/>
      <use transform="translate(1101.079102 0.015625)" xlink:href="#DejaVuSans-61"/>
      <use transform="translate(1204.350586 0.015625)" xlink:href="#DejaVuSans-Oblique-955"/>
      <use transform="translate(1263.530273 -16.390625)scale(0.7)" xlink:href="#DejaVuSans-51"/>
     </g>
    </g>
   </g>
   <g id="matplotlib.axis_2">
    <g id="ytick_1">
     <g id="line2d_6">
      <defs>
       <path d="M 0 0 
L -3.5 0 
" id="m15042f364b" style="stroke:#000000;stroke-width:0.8;"/>
      </defs>
      <g>
       <use style="stroke:#000000;stroke-width:0.8;" x="54" xlink:href="#m15042f364b" y="219.349445"/>
      </g>
     </g>
     <g id="text_7">
      <!-- −4 -->
      <g transform="translate(32.257812 223.148664)scale(0.1 -0.1)">
       <defs>
        <path d="M 37.796875 64.3125 
L 12.890625 25.390625 
L 37.796875 25.390625 
z
M 35.203125 72.90625 
L 47.609375 72.90625 
L 47.609375 25.390625 
L 58.015625 25.390625 
L 58.015625 17.1875 
L 47.609375 17.1875 
L 47.609375 0 
L 37.796875 0 
L 37.796875 17.1875 
L 4.890625 17.1875 
L 4.890625 26.703125 
z
" id="DejaVuSans-52"/>
       </defs>
       <use xlink:href="#DejaVuSans-8722"/>
       <use x="83.789062" xlink:href="#DejaVuSans-52"/>
      </g>
     </g>
    </g>
    <g id="ytick_2">
     <g id="line2d_7">
      <g>
       <use style="stroke:#000000;stroke-width:0.8;" x="54" xlink:href="#m15042f364b" y="181.314292"/>
      </g>
     </g>
     <g id="text_8">
      <!-- −2 -->
      <g transform="translate(32.257812 185.113511)scale(0.1 -0.1)">
       <use xlink:href="#DejaVuSans-8722"/>
       <use x="83.789062" xlink:href="#DejaVuSans-50"/>
      </g>
     </g>
    </g>
    <g id="ytick_3">
     <g id="line2d_8">
      <g>
       <use style="stroke:#000000;stroke-width:0.8;" x="54" xlink:href="#m15042f364b" y="143.27914"/>
      </g>
     </g>
     <g id="text_9">
      <!-- 0 -->
      <g transform="translate(40.6375 147.078358)scale(0.1 -0.1)">
       <use xlink:href="#DejaVuSans-48"/>
      </g>
     </g>
    </g>
    <g id="ytick_4">
     <g id="line2d_9">
      <g>
       <use style="stroke:#000000;stroke-width:0.8;" x="54" xlink:href="#m15042f364b" y="105.243987"/>
      </g>
     </g>
     <g id="text_10">
      <!-- 2 -->
      <g transform="translate(40.6375 109.043206)scale(0.1 -0.1)">
       <use xlink:href="#DejaVuSans-50"/>
      </g>
     </g>
    </g>
    <g id="ytick_5">
     <g id="line2d_10">
      <g>
       <use style="stroke:#000000;stroke-width:0.8;" x="54" xlink:href="#m15042f364b" y="67.208834"/>
      </g>
     </g>
     <g id="text_11">
      <!-- 4 -->
      <g transform="translate(40.6375 71.008053)scale(0.1 -0.1)">
       <use xlink:href="#DejaVuSans-52"/>
      </g>
     </g>
    </g>
    <g id="text_12">
     <!-- load-proportionality-factor LPF -->
     <g transform="translate(26.178125 219.205781)rotate(-90)scale(0.1 -0.1)">
      <defs>
       <path d="M 30.609375 48.390625 
Q 23.390625 48.390625 19.1875 42.75 
Q 14.984375 37.109375 14.984375 27.296875 
Q 14.984375 17.484375 19.15625 11.84375 
Q 23.34375 6.203125 30.609375 6.203125 
Q 37.796875 6.203125 41.984375 11.859375 
Q 46.1875 17.53125 46.1875 27.296875 
Q 46.1875 37.015625 41.984375 42.703125 
Q 37.796875 48.390625 30.609375 48.390625 
z
M 30.609375 56 
Q 42.328125 56 49.015625 48.375 
Q 55.71875 40.765625 55.71875 27.296875 
Q 55.71875 13.875 49.015625 6.21875 
Q 42.328125 -1.421875 30.609375 -1.421875 
Q 18.84375 -1.421875 12.171875 6.21875 
Q 5.515625 13.875 5.515625 27.296875 
Q 5.515625 40.765625 12.171875 48.375 
Q 18.84375 56 30.609375 56 
z
" id="DejaVuSans-111"/>
       <path d="M 45.40625 46.390625 
L 45.40625 75.984375 
L 54.390625 75.984375 
L 54.390625 0 
L 45.40625 0 
L 45.40625 8.203125 
Q 42.578125 3.328125 38.25 0.953125 
Q 33.9375 -1.421875 27.875 -1.421875 
Q 17.96875 -1.421875 11.734375 6.484375 
Q 5.515625 14.40625 5.515625 27.296875 
Q 5.515625 40.1875 11.734375 48.09375 
Q 17.96875 56 27.875 56 
Q 33.9375 56 38.25 53.625 
Q 42.578125 51.265625 45.40625 46.390625 
z
M 14.796875 27.296875 
Q 14.796875 17.390625 18.875 11.75 
Q 22.953125 6.109375 30.078125 6.109375 
Q 37.203125 6.109375 41.296875 11.75 
Q 45.40625 17.390625 45.40625 27.296875 
Q 45.40625 37.203125 41.296875 42.84375 
Q 37.203125 48.484375 30.078125 48.484375 
Q 22.953125 48.484375 18.875 42.84375 
Q 14.796875 37.203125 14.796875 27.296875 
z
" id="DejaVuSans-100"/>
       <path d="M 4.890625 31.390625 
L 31.203125 31.390625 
L 31.203125 23.390625 
L 4.890625 23.390625 
z
" id="DejaVuSans-45"/>
       <path d="M 18.109375 8.203125 
L 18.109375 -20.796875 
L 9.078125 -20.796875 
L 9.078125 54.6875 
L 18.109375 54.6875 
L 18.109375 46.390625 
Q 20.953125 51.265625 25.265625 53.625 
Q 29.59375 56 35.59375 56 
Q 45.5625 56 51.78125 48.09375 
Q 58.015625 40.1875 58.015625 27.296875 
Q 58.015625 14.40625 51.78125 6.484375 
Q 45.5625 -1.421875 35.59375 -1.421875 
Q 29.59375 -1.421875 25.265625 0.953125 
Q 20.953125 3.328125 18.109375 8.203125 
z
M 48.6875 27.296875 
Q 48.6875 37.203125 44.609375 42.84375 
Q 40.53125 48.484375 33.40625 48.484375 
Q 26.265625 48.484375 22.1875 42.84375 
Q 18.109375 37.203125 18.109375 27.296875 
Q 18.109375 17.390625 22.1875 11.75 
Q 26.265625 6.109375 33.40625 6.109375 
Q 40.53125 6.109375 44.609375 11.75 
Q 48.6875 17.390625 48.6875 27.296875 
z
" id="DejaVuSans-112"/>
       <path d="M 9.421875 54.6875 
L 18.40625 54.6875 
L 18.40625 0 
L 9.421875 0 
z
M 9.421875 75.984375 
L 18.40625 75.984375 
L 18.40625 64.59375 
L 9.421875 64.59375 
z
" id="DejaVuSans-105"/>
       <path d="M 32.171875 -5.078125 
Q 28.375 -14.84375 24.75 -17.8125 
Q 21.140625 -20.796875 15.09375 -20.796875 
L 7.90625 -20.796875 
L 7.90625 -13.28125 
L 13.1875 -13.28125 
Q 16.890625 -13.28125 18.9375 -11.515625 
Q 21 -9.765625 23.484375 -3.21875 
L 25.09375 0.875 
L 2.984375 54.6875 
L 12.5 54.6875 
L 29.59375 11.921875 
L 46.6875 54.6875 
L 56.203125 54.6875 
z
" id="DejaVuSans-121"/>
       <path d="M 37.109375 75.984375 
L 37.109375 68.5 
L 28.515625 68.5 
Q 23.6875 68.5 21.796875 66.546875 
Q 19.921875 64.59375 19.921875 59.515625 
L 19.921875 54.6875 
L 34.71875 54.6875 
L 34.71875 47.703125 
L 19.921875 47.703125 
L 19.921875 0 
L 10.890625 0 
L 10.890625 47.703125 
L 2.296875 47.703125 
L 2.296875 54.6875 
L 10.890625 54.6875 
L 10.890625 58.5 
Q 10.890625 67.625 15.140625 71.796875 
Q 19.390625 75.984375 28.609375 75.984375 
z
" id="DejaVuSans-102"/>
       <path d="M 9.8125 72.90625 
L 19.671875 72.90625 
L 19.671875 8.296875 
L 55.171875 8.296875 
L 55.171875 0 
L 9.8125 0 
z
" id="DejaVuSans-76"/>
       <path d="M 19.671875 64.796875 
L 19.671875 37.40625 
L 32.078125 37.40625 
Q 38.96875 37.40625 42.71875 40.96875 
Q 46.484375 44.53125 46.484375 51.125 
Q 46.484375 57.671875 42.71875 61.234375 
Q 38.96875 64.796875 32.078125 64.796875 
z
M 9.8125 72.90625 
L 32.078125 72.90625 
Q 44.34375 72.90625 50.609375 67.359375 
Q 56.890625 61.8125 56.890625 51.125 
Q 56.890625 40.328125 50.609375 34.8125 
Q 44.34375 29.296875 32.078125 29.296875 
L 19.671875 29.296875 
L 19.671875 0 
L 9.8125 0 
z
" id="DejaVuSans-80"/>
       <path d="M 9.8125 72.90625 
L 51.703125 72.90625 
L 51.703125 64.59375 
L 19.671875 64.59375 
L 19.671875 43.109375 
L 48.578125 43.109375 
L 48.578125 34.8125 
L 19.671875 34.8125 
L 19.671875 0 
L 9.8125 0 
z
" id="DejaVuSans-70"/>
      </defs>
      <use xlink:href="#DejaVuSans-108"/>
      <use x="27.783203" xlink:href="#DejaVuSans-111"/>
      <use x="88.964844" xlink:href="#DejaVuSans-97"/>
      <use x="150.244141" xlink:href="#DejaVuSans-100"/>
      <use x="213.720703" xlink:href="#DejaVuSans-45"/>
      <use x="249.804688" xlink:href="#DejaVuSans-112"/>
      <use x="313.28125" xlink:href="#DejaVuSans-114"/>
      <use x="352.144531" xlink:href="#DejaVuSans-111"/>
      <use x="413.326172" xlink:href="#DejaVuSans-112"/>
      <use x="476.802734" xlink:href="#DejaVuSans-111"/>
      <use x="537.984375" xlink:href="#DejaVuSans-114"/>
      <use x="579.097656" xlink:href="#DejaVuSans-116"/>
      <use x="618.306641" xlink:href="#DejaVuSans-105"/>
      <use x="646.089844" xlink:href="#DejaVuSans-111"/>
      <use x="707.271484" xlink:href="#DejaVuSans-110"/>
      <use x="770.650391" xlink:href="#DejaVuSans-97"/>
      <use x="831.929688" xlink:href="#DejaVuSans-108"/>
      <use x="859.712891" xlink:href="#DejaVuSans-105"/>
      <use x="887.496094" xlink:href="#DejaVuSans-116"/>
      <use x="926.705078" xlink:href="#DejaVuSans-121"/>
      <use x="984.134766" xlink:href="#DejaVuSans-45"/>
      <use x="1020.21875" xlink:href="#DejaVuSans-102"/>
      <use x="1055.423828" xlink:href="#DejaVuSans-97"/>
      <use x="1116.703125" xlink:href="#DejaVuSans-99"/>
      <use x="1171.683594" xlink:href="#DejaVuSans-116"/>
      <use x="1210.892578" xlink:href="#DejaVuSans-111"/>
      <use x="1272.074219" xlink:href="#DejaVuSans-114"/>
      <use x="1313.1875" xlink:href="#DejaVuSans-32"/>
      <use x="1344.974609" xlink:href="#DejaVuSans-76"/>
      <use x="1400.6875" xlink:href="#DejaVuSans-80"/>
      <use x="1460.990234" xlink:href="#DejaVuSans-70"/>
     </g>
    </g>
   </g>
   <g id="line2d_11">
    <path clip-path="url(#p06f0b5aefa)" d="M 345.659812 143.27914 
L 341.454641 139.237905 
L 336.010921 133.57349 
L 330.102818 127.044323 
L 321.239625 116.8425 
L 307.879279 101.344939 
L 299.383312 91.836151 
L 290.376476 82.327363 
L 280.514222 72.818575 
L 269.170582 63.309787 
L 254.76424 53.800998 
L 244.709276 49.046604 
L 237.580073 46.669407 
L 232.439306 45.480809 
L 228.61938 44.886509 
L 224.736035 44.536523 
L 220.852689 44.443636 
L 215.755799 44.712205 
L 209.06613 45.735207 
L 203.774924 47.07891 
L 199.495471 48.506593 
L 195.495196 50.112738 
L 191.408394 52.020034 
L 187.155408 54.284949 
L 182.671215 56.974535 
L 177.89579 60.168418 
L 172.76843 63.961155 
L 167.223301 68.46503 
L 161.184762 73.813381 
L 154.561081 80.164548 
L 147.234406 87.706559 
L 139.042324 96.662697 
L 130.710839 106.171485 
L 114.317722 125.189061 
L 105.723861 134.697849 
L 96.102836 144.206637 
L 90.279517 148.961032 
L 86.675289 151.338229 
L 81.452074 153.697304 
L 77.251313 154.235662 
L 73.307591 152.85747 
L 71.532514 151.106762 
L 70.434335 149.249577 
L 69.754456 147.392391 
L 69.316931 145.186984 
L 69.218182 142.568063 
L 69.675682 139.458094 
L 70.299865 137.61155 
L 71.30728 135.765005 
L 72.992972 133.937925 
L 75.992579 132.505388 
L 81.082402 132.756052 
L 83.001262 133.399441 
L 85.082785 134.346156 
L 86.799033 135.29287 
L 88.586228 136.417094 
L 90.491345 137.752109 
L 92.55464 139.33744 
L 94.930387 141.319103 
L 97.684991 143.796183 
L 100.745263 146.737714 
L 104.177427 150.230783 
L 108.061387 154.378803 
L 112.49722 159.304576 
L 123.591082 172.100041 
L 130.677796 180.348546 
L 139.008203 189.857334 
L 147.719568 199.366122 
L 157.090052 208.87491 
L 167.56655 218.383698 
L 180.080566 227.892486 
L 187.821919 232.646881 
L 197.796308 237.401275 
L 204.807822 239.778472 
L 209.773506 240.96707 
L 215.261022 241.796428 
L 219.144368 242.073993 
L 221.692813 242.116364 
L 225.037647 242.003775 
L 229.427743 241.566642 
L 234.362501 240.684838 
L 237.890055 239.803033 
L 241.127384 238.811003 
L 244.397913 237.632966 
L 247.773355 236.234049 
L 251.307765 234.572834 
L 255.047673 232.600141 
L 259.037168 230.257568 
L 263.321046 227.475764 
L 267.947279 224.17237 
L 272.969444 220.249591 
L 278.449678 215.59129 
L 284.462813 210.059557 
L 291.102891 203.490625 
L 298.49448 195.690019 
L 306.814662 186.426798 
L 331.537885 157.900434 
L 340.392586 148.391645 
L 350.804964 138.882857 
L 358.138852 134.128463 
L 360.687393 133.066755 
L 362.977317 132.471557 
L 365.020992 132.301087 
L 367.346787 132.651888 
L 369.814097 133.955124 
L 371.032183 135.169172 
L 371.908086 136.448888 
L 372.534924 137.728605 
L 373.075684 139.328251 
L 373.45052 141.22783 
L 373.581818 143.483581 
L 373.318293 146.162285 
L 372.307465 149.343245 
L 371.233593 151.132536 
L 369.526203 152.822742 
L 367.331405 153.911061 
L 363.672602 154.187219 
L 357.753684 152.238055 
L 351.973213 148.568612 
L 347.464779 144.899169 
L 343.008927 140.771045 
L 338.169874 135.868898 
L 332.785502 130.047599 
L 326.672725 123.134805 
L 303.068932 95.908287 
L 294.314629 86.399499 
L 284.872601 76.890711 
L 274.272977 67.381923 
L 261.509638 57.873135 
L 253.506515 53.118741 
L 242.901069 48.364346 
L 234.868718 45.987149 
L 227.866105 44.798551 
L 223.982759 44.49839 
L 220.099414 44.455422 
L 216.216069 44.669763 
L 211.119178 45.340608 
L 206.35782 46.364382 
L 202.564063 47.452141 
L 199.041165 48.67587 
L 195.457637 50.129048 
L 191.741343 51.854697 
L 187.835415 53.903906 
L 183.689076 56.337341 
L 179.252688 59.227045 
L 174.474349 62.658568 
L 169.296875 66.733502 
L 163.654378 71.572487 
L 157.46759 77.318781 
L 150.636544 84.142505 
L 143.02772 92.245677 
L 134.54796 101.754465 
L 109.789472 130.28083 
L 100.776517 139.789618 
L 89.810431 149.298406 
L 86.085868 151.675603 
L 86.085868 151.675603 
" style="fill:none;stroke:#1f77b4;stroke-linecap:square;stroke-width:1.5;"/>
    <defs>
     <path d="M 0 1.5 
C 0.397805 1.5 0.77937 1.341951 1.06066 1.06066 
C 1.341951 0.77937 1.5 0.397805 1.5 0 
C 1.5 -0.397805 1.341951 -0.77937 1.06066 -1.06066 
C 0.77937 -1.341951 0.397805 -1.5 0 -1.5 
C -0.397805 -1.5 -0.77937 -1.341951 -1.06066 -1.06066 
C -1.341951 -0.77937 -1.5 -0.397805 -1.5 0 
C -1.5 0.397805 -1.341951 0.77937 -1.06066 1.06066 
C -0.77937 1.341951 -0.397805 1.5 0 1.5 
z
" id="mfebf9292f8" style="stroke:#1f77b4;"/>
    </defs>
    <g clip-path="url(#p06f0b5aefa)">
     <use style="fill:#1f77b4;stroke:#1f77b4;" x="345.659812" xlink:href="#mfebf9292f8" y="143.27914"/>
     <use style="fill:#1f77b4;stroke:#1f77b4;" x="344.636755" xlink:href="#mfebf9292f8" y="142.328261"/>
     <use style="fill:#1f77b4;stroke:#1f77b4;" x="343.636324" xlink:href="#mfebf9292f8" y="141.377382"/>
     <use style="fill:#1f77b4;stroke:#1f77b4;" x="342.655783" xlink:href="#mfebf9292f8" y="140.426503"/>
     <use style="fill:#1f77b4;stroke:#1f77b4;" x="341.454641" xlink:href="#mfebf9292f8" y="139.237905"/>
     <use style="fill:#1f77b4;stroke:#1f77b4;" x="339.986377" xlink:href="#mfebf9292f8" y="137.752156"/>
     <use style="fill:#1f77b4;stroke:#1f77b4;" x="338.194722" xlink:href="#mfebf9292f8" y="135.894971"/>
     <use style="fill:#1f77b4;stroke:#1f77b4;" x="336.010921" xlink:href="#mfebf9292f8" y="133.57349"/>
     <use style="fill:#1f77b4;stroke:#1f77b4;" x="333.349656" xlink:href="#mfebf9292f8" y="130.671638"/>
     <use style="fill:#1f77b4;stroke:#1f77b4;" x="330.102818" xlink:href="#mfebf9292f8" y="127.044323"/>
     <use style="fill:#1f77b4;stroke:#1f77b4;" x="326.129562" xlink:href="#mfebf9292f8" y="122.51018"/>
     <use style="fill:#1f77b4;stroke:#1f77b4;" x="321.239625" xlink:href="#mfebf9292f8" y="116.8425"/>
     <use style="fill:#1f77b4;stroke:#1f77b4;" x="315.163261" xlink:href="#mfebf9292f8" y="109.757901"/>
     <use style="fill:#1f77b4;stroke:#1f77b4;" x="307.879279" xlink:href="#mfebf9292f8" y="101.344939"/>
     <use style="fill:#1f77b4;stroke:#1f77b4;" x="299.383312" xlink:href="#mfebf9292f8" y="91.836151"/>
     <use style="fill:#1f77b4;stroke:#1f77b4;" x="290.376476" xlink:href="#mfebf9292f8" y="82.327363"/>
     <use style="fill:#1f77b4;stroke:#1f77b4;" x="280.514222" xlink:href="#mfebf9292f8" y="72.818575"/>
     <use style="fill:#1f77b4;stroke:#1f77b4;" x="269.170582" xlink:href="#mfebf9292f8" y="63.309787"/>
     <use style="fill:#1f77b4;stroke:#1f77b4;" x="254.76424" xlink:href="#mfebf9292f8" y="53.800998"/>
     <use style="fill:#1f77b4;stroke:#1f77b4;" x="244.709276" xlink:href="#mfebf9292f8" y="49.046604"/>
     <use style="fill:#1f77b4;stroke:#1f77b4;" x="237.580073" xlink:href="#mfebf9292f8" y="46.669407"/>
     <use style="fill:#1f77b4;stroke:#1f77b4;" x="232.439306" xlink:href="#mfebf9292f8" y="45.480809"/>
     <use style="fill:#1f77b4;stroke:#1f77b4;" x="228.61938" xlink:href="#mfebf9292f8" y="44.886509"/>
     <use style="fill:#1f77b4;stroke:#1f77b4;" x="224.736035" xlink:href="#mfebf9292f8" y="44.536523"/>
     <use style="fill:#1f77b4;stroke:#1f77b4;" x="220.852689" xlink:href="#mfebf9292f8" y="44.443636"/>
     <use style="fill:#1f77b4;stroke:#1f77b4;" x="215.755799" xlink:href="#mfebf9292f8" y="44.712205"/>
     <use style="fill:#1f77b4;stroke:#1f77b4;" x="209.06613" xlink:href="#mfebf9292f8" y="45.735207"/>
     <use style="fill:#1f77b4;stroke:#1f77b4;" x="203.774924" xlink:href="#mfebf9292f8" y="47.07891"/>
     <use style="fill:#1f77b4;stroke:#1f77b4;" x="199.495471" xlink:href="#mfebf9292f8" y="48.506593"/>
     <use style="fill:#1f77b4;stroke:#1f77b4;" x="195.495196" xlink:href="#mfebf9292f8" y="50.112738"/>
     <use style="fill:#1f77b4;stroke:#1f77b4;" x="191.408394" xlink:href="#mfebf9292f8" y="52.020034"/>
     <use style="fill:#1f77b4;stroke:#1f77b4;" x="187.155408" xlink:href="#mfebf9292f8" y="54.284949"/>
     <use style="fill:#1f77b4;stroke:#1f77b4;" x="182.671215" xlink:href="#mfebf9292f8" y="56.974535"/>
     <use style="fill:#1f77b4;stroke:#1f77b4;" x="177.89579" xlink:href="#mfebf9292f8" y="60.168418"/>
     <use style="fill:#1f77b4;stroke:#1f77b4;" x="172.76843" xlink:href="#mfebf9292f8" y="63.961155"/>
     <use style="fill:#1f77b4;stroke:#1f77b4;" x="167.223301" xlink:href="#mfebf9292f8" y="68.46503"/>
     <use style="fill:#1f77b4;stroke:#1f77b4;" x="161.184762" xlink:href="#mfebf9292f8" y="73.813381"/>
     <use style="fill:#1f77b4;stroke:#1f77b4;" x="154.561081" xlink:href="#mfebf9292f8" y="80.164548"/>
     <use style="fill:#1f77b4;stroke:#1f77b4;" x="147.234406" xlink:href="#mfebf9292f8" y="87.706559"/>
     <use style="fill:#1f77b4;stroke:#1f77b4;" x="139.042324" xlink:href="#mfebf9292f8" y="96.662697"/>
     <use style="fill:#1f77b4;stroke:#1f77b4;" x="130.710839" xlink:href="#mfebf9292f8" y="106.171485"/>
     <use style="fill:#1f77b4;stroke:#1f77b4;" x="122.54324" xlink:href="#mfebf9292f8" y="115.680273"/>
     <use style="fill:#1f77b4;stroke:#1f77b4;" x="114.317722" xlink:href="#mfebf9292f8" y="125.189061"/>
     <use style="fill:#1f77b4;stroke:#1f77b4;" x="105.723861" xlink:href="#mfebf9292f8" y="134.697849"/>
     <use style="fill:#1f77b4;stroke:#1f77b4;" x="96.102836" xlink:href="#mfebf9292f8" y="144.206637"/>
     <use style="fill:#1f77b4;stroke:#1f77b4;" x="90.279517" xlink:href="#mfebf9292f8" y="148.961032"/>
     <use style="fill:#1f77b4;stroke:#1f77b4;" x="86.675289" xlink:href="#mfebf9292f8" y="151.338229"/>
     <use style="fill:#1f77b4;stroke:#1f77b4;" x="81.452074" xlink:href="#mfebf9292f8" y="153.697304"/>
     <use style="fill:#1f77b4;stroke:#1f77b4;" x="77.251313" xlink:href="#mfebf9292f8" y="154.235662"/>
     <use style="fill:#1f77b4;stroke:#1f77b4;" x="73.307591" xlink:href="#mfebf9292f8" y="152.85747"/>
     <use style="fill:#1f77b4;stroke:#1f77b4;" x="71.532514" xlink:href="#mfebf9292f8" y="151.106762"/>
     <use style="fill:#1f77b4;stroke:#1f77b4;" x="70.434335" xlink:href="#mfebf9292f8" y="149.249577"/>
     <use style="fill:#1f77b4;stroke:#1f77b4;" x="69.754456" xlink:href="#mfebf9292f8" y="147.392391"/>
     <use style="fill:#1f77b4;stroke:#1f77b4;" x="69.316931" xlink:href="#mfebf9292f8" y="145.186984"/>
     <use style="fill:#1f77b4;stroke:#1f77b4;" x="69.218182" xlink:href="#mfebf9292f8" y="142.568063"/>
     <use style="fill:#1f77b4;stroke:#1f77b4;" x="69.675682" xlink:href="#mfebf9292f8" y="139.458094"/>
     <use style="fill:#1f77b4;stroke:#1f77b4;" x="70.299865" xlink:href="#mfebf9292f8" y="137.61155"/>
     <use style="fill:#1f77b4;stroke:#1f77b4;" x="71.30728" xlink:href="#mfebf9292f8" y="135.765005"/>
     <use style="fill:#1f77b4;stroke:#1f77b4;" x="72.992972" xlink:href="#mfebf9292f8" y="133.937925"/>
     <use style="fill:#1f77b4;stroke:#1f77b4;" x="75.992579" xlink:href="#mfebf9292f8" y="132.505388"/>
     <use style="fill:#1f77b4;stroke:#1f77b4;" x="81.082402" xlink:href="#mfebf9292f8" y="132.756052"/>
     <use style="fill:#1f77b4;stroke:#1f77b4;" x="83.001262" xlink:href="#mfebf9292f8" y="133.399441"/>
     <use style="fill:#1f77b4;stroke:#1f77b4;" x="85.082785" xlink:href="#mfebf9292f8" y="134.346156"/>
     <use style="fill:#1f77b4;stroke:#1f77b4;" x="86.799033" xlink:href="#mfebf9292f8" y="135.29287"/>
     <use style="fill:#1f77b4;stroke:#1f77b4;" x="88.586228" xlink:href="#mfebf9292f8" y="136.417094"/>
     <use style="fill:#1f77b4;stroke:#1f77b4;" x="90.491345" xlink:href="#mfebf9292f8" y="137.752109"/>
     <use style="fill:#1f77b4;stroke:#1f77b4;" x="92.55464" xlink:href="#mfebf9292f8" y="139.33744"/>
     <use style="fill:#1f77b4;stroke:#1f77b4;" x="94.930387" xlink:href="#mfebf9292f8" y="141.319103"/>
     <use style="fill:#1f77b4;stroke:#1f77b4;" x="97.684991" xlink:href="#mfebf9292f8" y="143.796183"/>
     <use style="fill:#1f77b4;stroke:#1f77b4;" x="100.745263" xlink:href="#mfebf9292f8" y="146.737714"/>
     <use style="fill:#1f77b4;stroke:#1f77b4;" x="104.177427" xlink:href="#mfebf9292f8" y="150.230783"/>
     <use style="fill:#1f77b4;stroke:#1f77b4;" x="108.061387" xlink:href="#mfebf9292f8" y="154.378803"/>
     <use style="fill:#1f77b4;stroke:#1f77b4;" x="112.49722" xlink:href="#mfebf9292f8" y="159.304576"/>
     <use style="fill:#1f77b4;stroke:#1f77b4;" x="117.614995" xlink:href="#mfebf9292f8" y="165.153931"/>
     <use style="fill:#1f77b4;stroke:#1f77b4;" x="123.591082" xlink:href="#mfebf9292f8" y="172.100041"/>
     <use style="fill:#1f77b4;stroke:#1f77b4;" x="130.677796" xlink:href="#mfebf9292f8" y="180.348546"/>
     <use style="fill:#1f77b4;stroke:#1f77b4;" x="139.008203" xlink:href="#mfebf9292f8" y="189.857334"/>
     <use style="fill:#1f77b4;stroke:#1f77b4;" x="147.719568" xlink:href="#mfebf9292f8" y="199.366122"/>
     <use style="fill:#1f77b4;stroke:#1f77b4;" x="157.090052" xlink:href="#mfebf9292f8" y="208.87491"/>
     <use style="fill:#1f77b4;stroke:#1f77b4;" x="167.56655" xlink:href="#mfebf9292f8" y="218.383698"/>
     <use style="fill:#1f77b4;stroke:#1f77b4;" x="180.080566" xlink:href="#mfebf9292f8" y="227.892486"/>
     <use style="fill:#1f77b4;stroke:#1f77b4;" x="187.821919" xlink:href="#mfebf9292f8" y="232.646881"/>
     <use style="fill:#1f77b4;stroke:#1f77b4;" x="197.796308" xlink:href="#mfebf9292f8" y="237.401275"/>
     <use style="fill:#1f77b4;stroke:#1f77b4;" x="204.807822" xlink:href="#mfebf9292f8" y="239.778472"/>
     <use style="fill:#1f77b4;stroke:#1f77b4;" x="209.773506" xlink:href="#mfebf9292f8" y="240.96707"/>
     <use style="fill:#1f77b4;stroke:#1f77b4;" x="213.319349" xlink:href="#mfebf9292f8" y="241.561369"/>
     <use style="fill:#1f77b4;stroke:#1f77b4;" x="215.261022" xlink:href="#mfebf9292f8" y="241.796428"/>
     <use style="fill:#1f77b4;stroke:#1f77b4;" x="217.202695" xlink:href="#mfebf9292f8" y="241.967337"/>
     <use style="fill:#1f77b4;stroke:#1f77b4;" x="219.144368" xlink:href="#mfebf9292f8" y="242.073993"/>
     <use style="fill:#1f77b4;stroke:#1f77b4;" x="221.692813" xlink:href="#mfebf9292f8" y="242.116364"/>
     <use style="fill:#1f77b4;stroke:#1f77b4;" x="225.037647" xlink:href="#mfebf9292f8" y="242.003775"/>
     <use style="fill:#1f77b4;stroke:#1f77b4;" x="229.427743" xlink:href="#mfebf9292f8" y="241.566642"/>
     <use style="fill:#1f77b4;stroke:#1f77b4;" x="234.362501" xlink:href="#mfebf9292f8" y="240.684838"/>
     <use style="fill:#1f77b4;stroke:#1f77b4;" x="237.890055" xlink:href="#mfebf9292f8" y="239.803033"/>
     <use style="fill:#1f77b4;stroke:#1f77b4;" x="241.127384" xlink:href="#mfebf9292f8" y="238.811003"/>
     <use style="fill:#1f77b4;stroke:#1f77b4;" x="244.397913" xlink:href="#mfebf9292f8" y="237.632966"/>
     <use style="fill:#1f77b4;stroke:#1f77b4;" x="247.773355" xlink:href="#mfebf9292f8" y="236.234049"/>
     <use style="fill:#1f77b4;stroke:#1f77b4;" x="251.307765" xlink:href="#mfebf9292f8" y="234.572834"/>
     <use style="fill:#1f77b4;stroke:#1f77b4;" x="255.047673" xlink:href="#mfebf9292f8" y="232.600141"/>
     <use style="fill:#1f77b4;stroke:#1f77b4;" x="259.037168" xlink:href="#mfebf9292f8" y="230.257568"/>
     <use style="fill:#1f77b4;stroke:#1f77b4;" x="263.321046" xlink:href="#mfebf9292f8" y="227.475764"/>
     <use style="fill:#1f77b4;stroke:#1f77b4;" x="267.947279" xlink:href="#mfebf9292f8" y="224.17237"/>
     <use style="fill:#1f77b4;stroke:#1f77b4;" x="272.969444" xlink:href="#mfebf9292f8" y="220.249591"/>
     <use style="fill:#1f77b4;stroke:#1f77b4;" x="278.449678" xlink:href="#mfebf9292f8" y="215.59129"/>
     <use style="fill:#1f77b4;stroke:#1f77b4;" x="284.462813" xlink:href="#mfebf9292f8" y="210.059557"/>
     <use style="fill:#1f77b4;stroke:#1f77b4;" x="291.102891" xlink:href="#mfebf9292f8" y="203.490625"/>
     <use style="fill:#1f77b4;stroke:#1f77b4;" x="298.49448" xlink:href="#mfebf9292f8" y="195.690019"/>
     <use style="fill:#1f77b4;stroke:#1f77b4;" x="306.814662" xlink:href="#mfebf9292f8" y="186.426798"/>
     <use style="fill:#1f77b4;stroke:#1f77b4;" x="315.062213" xlink:href="#mfebf9292f8" y="176.91801"/>
     <use style="fill:#1f77b4;stroke:#1f77b4;" x="323.223016" xlink:href="#mfebf9292f8" y="167.409222"/>
     <use style="fill:#1f77b4;stroke:#1f77b4;" x="331.537885" xlink:href="#mfebf9292f8" y="157.900434"/>
     <use style="fill:#1f77b4;stroke:#1f77b4;" x="340.392586" xlink:href="#mfebf9292f8" y="148.391645"/>
     <use style="fill:#1f77b4;stroke:#1f77b4;" x="350.804964" xlink:href="#mfebf9292f8" y="138.882857"/>
     <use style="fill:#1f77b4;stroke:#1f77b4;" x="358.138852" xlink:href="#mfebf9292f8" y="134.128463"/>
     <use style="fill:#1f77b4;stroke:#1f77b4;" x="360.687393" xlink:href="#mfebf9292f8" y="133.066755"/>
     <use style="fill:#1f77b4;stroke:#1f77b4;" x="362.977317" xlink:href="#mfebf9292f8" y="132.471557"/>
     <use style="fill:#1f77b4;stroke:#1f77b4;" x="365.020992" xlink:href="#mfebf9292f8" y="132.301087"/>
     <use style="fill:#1f77b4;stroke:#1f77b4;" x="367.346787" xlink:href="#mfebf9292f8" y="132.651888"/>
     <use style="fill:#1f77b4;stroke:#1f77b4;" x="369.814097" xlink:href="#mfebf9292f8" y="133.955124"/>
     <use style="fill:#1f77b4;stroke:#1f77b4;" x="371.032183" xlink:href="#mfebf9292f8" y="135.169172"/>
     <use style="fill:#1f77b4;stroke:#1f77b4;" x="371.908086" xlink:href="#mfebf9292f8" y="136.448888"/>
     <use style="fill:#1f77b4;stroke:#1f77b4;" x="372.534924" xlink:href="#mfebf9292f8" y="137.728605"/>
     <use style="fill:#1f77b4;stroke:#1f77b4;" x="373.075684" xlink:href="#mfebf9292f8" y="139.328251"/>
     <use style="fill:#1f77b4;stroke:#1f77b4;" x="373.45052" xlink:href="#mfebf9292f8" y="141.22783"/>
     <use style="fill:#1f77b4;stroke:#1f77b4;" x="373.581818" xlink:href="#mfebf9292f8" y="143.483581"/>
     <use style="fill:#1f77b4;stroke:#1f77b4;" x="373.318293" xlink:href="#mfebf9292f8" y="146.162285"/>
     <use style="fill:#1f77b4;stroke:#1f77b4;" x="372.307465" xlink:href="#mfebf9292f8" y="149.343245"/>
     <use style="fill:#1f77b4;stroke:#1f77b4;" x="371.233593" xlink:href="#mfebf9292f8" y="151.132536"/>
     <use style="fill:#1f77b4;stroke:#1f77b4;" x="369.526203" xlink:href="#mfebf9292f8" y="152.822742"/>
     <use style="fill:#1f77b4;stroke:#1f77b4;" x="367.331405" xlink:href="#mfebf9292f8" y="153.911061"/>
     <use style="fill:#1f77b4;stroke:#1f77b4;" x="363.672602" xlink:href="#mfebf9292f8" y="154.187219"/>
     <use style="fill:#1f77b4;stroke:#1f77b4;" x="357.753684" xlink:href="#mfebf9292f8" y="152.238055"/>
     <use style="fill:#1f77b4;stroke:#1f77b4;" x="351.973213" xlink:href="#mfebf9292f8" y="148.568612"/>
     <use style="fill:#1f77b4;stroke:#1f77b4;" x="347.464779" xlink:href="#mfebf9292f8" y="144.899169"/>
     <use style="fill:#1f77b4;stroke:#1f77b4;" x="343.008927" xlink:href="#mfebf9292f8" y="140.771045"/>
     <use style="fill:#1f77b4;stroke:#1f77b4;" x="338.169874" xlink:href="#mfebf9292f8" y="135.868898"/>
     <use style="fill:#1f77b4;stroke:#1f77b4;" x="332.785502" xlink:href="#mfebf9292f8" y="130.047599"/>
     <use style="fill:#1f77b4;stroke:#1f77b4;" x="326.672725" xlink:href="#mfebf9292f8" y="123.134805"/>
     <use style="fill:#1f77b4;stroke:#1f77b4;" x="319.595339" xlink:href="#mfebf9292f8" y="114.925864"/>
     <use style="fill:#1f77b4;stroke:#1f77b4;" x="311.422393" xlink:href="#mfebf9292f8" y="105.417076"/>
     <use style="fill:#1f77b4;stroke:#1f77b4;" x="303.068932" xlink:href="#mfebf9292f8" y="95.908287"/>
     <use style="fill:#1f77b4;stroke:#1f77b4;" x="294.314629" xlink:href="#mfebf9292f8" y="86.399499"/>
     <use style="fill:#1f77b4;stroke:#1f77b4;" x="284.872601" xlink:href="#mfebf9292f8" y="76.890711"/>
     <use style="fill:#1f77b4;stroke:#1f77b4;" x="274.272977" xlink:href="#mfebf9292f8" y="67.381923"/>
     <use style="fill:#1f77b4;stroke:#1f77b4;" x="261.509638" xlink:href="#mfebf9292f8" y="57.873135"/>
     <use style="fill:#1f77b4;stroke:#1f77b4;" x="253.506515" xlink:href="#mfebf9292f8" y="53.118741"/>
     <use style="fill:#1f77b4;stroke:#1f77b4;" x="242.901069" xlink:href="#mfebf9292f8" y="48.364346"/>
     <use style="fill:#1f77b4;stroke:#1f77b4;" x="234.868718" xlink:href="#mfebf9292f8" y="45.987149"/>
     <use style="fill:#1f77b4;stroke:#1f77b4;" x="227.866105" xlink:href="#mfebf9292f8" y="44.798551"/>
     <use style="fill:#1f77b4;stroke:#1f77b4;" x="223.982759" xlink:href="#mfebf9292f8" y="44.49839"/>
     <use style="fill:#1f77b4;stroke:#1f77b4;" x="220.099414" xlink:href="#mfebf9292f8" y="44.455422"/>
     <use style="fill:#1f77b4;stroke:#1f77b4;" x="216.216069" xlink:href="#mfebf9292f8" y="44.669763"/>
     <use style="fill:#1f77b4;stroke:#1f77b4;" x="211.119178" xlink:href="#mfebf9292f8" y="45.340608"/>
     <use style="fill:#1f77b4;stroke:#1f77b4;" x="206.35782" xlink:href="#mfebf9292f8" y="46.364382"/>
     <use style="fill:#1f77b4;stroke:#1f77b4;" x="202.564063" xlink:href="#mfebf9292f8" y="47.452141"/>
     <use style="fill:#1f77b4;stroke:#1f77b4;" x="199.041165" xlink:href="#mfebf9292f8" y="48.67587"/>
     <use style="fill:#1f77b4;stroke:#1f77b4;" x="195.457637" xlink:href="#mfebf9292f8" y="50.129048"/>
     <use style="fill:#1f77b4;stroke:#1f77b4;" x="191.741343" xlink:href="#mfebf9292f8" y="51.854697"/>
     <use style="fill:#1f77b4;stroke:#1f77b4;" x="187.835415" xlink:href="#mfebf9292f8" y="53.903906"/>
     <use style="fill:#1f77b4;stroke:#1f77b4;" x="183.689076" xlink:href="#mfebf9292f8" y="56.337341"/>
     <use style="fill:#1f77b4;stroke:#1f77b4;" x="179.252688" xlink:href="#mfebf9292f8" y="59.227045"/>
     <use style="fill:#1f77b4;stroke:#1f77b4;" x="174.474349" xlink:href="#mfebf9292f8" y="62.658568"/>
     <use style="fill:#1f77b4;stroke:#1f77b4;" x="169.296875" xlink:href="#mfebf9292f8" y="66.733502"/>
     <use style="fill:#1f77b4;stroke:#1f77b4;" x="163.654378" xlink:href="#mfebf9292f8" y="71.572487"/>
     <use style="fill:#1f77b4;stroke:#1f77b4;" x="157.46759" xlink:href="#mfebf9292f8" y="77.318781"/>
     <use style="fill:#1f77b4;stroke:#1f77b4;" x="150.636544" xlink:href="#mfebf9292f8" y="84.142505"/>
     <use style="fill:#1f77b4;stroke:#1f77b4;" x="143.02772" xlink:href="#mfebf9292f8" y="92.245677"/>
     <use style="fill:#1f77b4;stroke:#1f77b4;" x="134.54796" xlink:href="#mfebf9292f8" y="101.754465"/>
     <use style="fill:#1f77b4;stroke:#1f77b4;" x="126.330161" xlink:href="#mfebf9292f8" y="111.263254"/>
     <use style="fill:#1f77b4;stroke:#1f77b4;" x="118.162045" xlink:href="#mfebf9292f8" y="120.772042"/>
     <use style="fill:#1f77b4;stroke:#1f77b4;" x="109.789472" xlink:href="#mfebf9292f8" y="130.28083"/>
     <use style="fill:#1f77b4;stroke:#1f77b4;" x="100.776517" xlink:href="#mfebf9292f8" y="139.789618"/>
     <use style="fill:#1f77b4;stroke:#1f77b4;" x="89.810431" xlink:href="#mfebf9292f8" y="149.298406"/>
     <use style="fill:#1f77b4;stroke:#1f77b4;" x="86.085868" xlink:href="#mfebf9292f8" y="151.675603"/>
    </g>
   </g>
   <g id="patch_3">
    <path d="M 54 252 
L 54 34.56 
" style="fill:none;stroke:#000000;stroke-linecap:square;stroke-linejoin:miter;stroke-width:0.8;"/>
   </g>
   <g id="patch_4">
    <path d="M 388.8 252 
L 388.8 34.56 
" style="fill:none;stroke:#000000;stroke-linecap:square;stroke-linejoin:miter;stroke-width:0.8;"/>
   </g>
   <g id="patch_5">
    <path d="M 54 252 
L 388.8 252 
" style="fill:none;stroke:#000000;stroke-linecap:square;stroke-linejoin:miter;stroke-width:0.8;"/>
   </g>
   <g id="patch_6">
    <path d="M 54 34.56 
L 388.8 34.56 
" style="fill:none;stroke:#000000;stroke-linecap:square;stroke-linejoin:miter;stroke-width:0.8;"/>
   </g>
  </g>
 </g>
 <defs>
  <clipPath id="p06f0b5aefa">
   <rect height="217.44" width="334.8" x="54" y="34.56"/>
  </clipPath>
 </defs>
</svg>
