<?xml version="1.0" encoding="utf-8" standalone="no"?>
<!DOCTYPE svg PUBLIC "-//W3C//DTD SVG 1.1//EN"
  "http://www.w3.org/Graphics/SVG/1.1/DTD/svg11.dtd">
<!-- Created with matplotlib (https://matplotlib.org/) -->
<svg height="288pt" version="1.1" viewBox="0 0 432 288" width="432pt" xmlns="http://www.w3.org/2000/svg" xmlns:xlink="http://www.w3.org/1999/xlink">
 <metadata>
  <rdf:RDF xmlns:cc="http://creativecommons.org/ns#" xmlns:dc="http://purl.org/dc/elements/1.1/" xmlns:rdf="http://www.w3.org/1999/02/22-rdf-syntax-ns#">
   <cc:Work>
    <dc:type rdf:resource="http://purl.org/dc/dcmitype/StillImage"/>
    <dc:date>2021-03-05T15:47:42.301488</dc:date>
    <dc:format>image/svg+xml</dc:format>
    <dc:creator>
     <cc:Agent>
      <dc:title>Matplotlib v3.3.2, https://matplotlib.org/</dc:title>
     </cc:Agent>
    </dc:creator>
   </cc:Work>
  </rdf:RDF>
 </metadata>
 <defs>
  <style type="text/css">*{stroke-linecap:butt;stroke-linejoin:round;}</style>
 </defs>
 <g id="figure_1">
  <g id="patch_1">
   <path d="M 0 288 
L 432 288 
L 432 0 
L 0 0 
z
" style="fill:#ffffff;"/>
  </g>
  <g id="axes_1">
   <g id="patch_2">
    <path d="M 54 252 
L 388.8 252 
L 388.8 34.56 
L 54 34.56 
z
" style="fill:#ffffff;"/>
   </g>
   <g id="matplotlib.axis_1">
    <g id="xtick_1">
     <g id="line2d_1">
      <defs>
       <path d="M 0 0 
L 0 3.5 
" id="m462466c755" style="stroke:#000000;stroke-width:0.8;"/>
      </defs>
      <g>
       <use style="stroke:#000000;stroke-width:0.8;" x="89.615254" xlink:href="#m462466c755" y="252"/>
      </g>
     </g>
     <g id="text_1">
      <!-- −1.5 -->
      <g transform="translate(77.473848 266.598437)scale(0.1 -0.1)">
       <defs>
        <path d="M 10.59375 35.5 
L 73.1875 35.5 
L 73.1875 27.203125 
L 10.59375 27.203125 
z
" id="DejaVuSans-8722"/>
        <path d="M 12.40625 8.296875 
L 28.515625 8.296875 
L 28.515625 63.921875 
L 10.984375 60.40625 
L 10.984375 69.390625 
L 28.421875 72.90625 
L 38.28125 72.90625 
L 38.28125 8.296875 
L 54.390625 8.296875 
L 54.390625 0 
L 12.40625 0 
z
" id="DejaVuSans-49"/>
        <path d="M 10.6875 12.40625 
L 21 12.40625 
L 21 0 
L 10.6875 0 
z
" id="DejaVuSans-46"/>
        <path d="M 10.796875 72.90625 
L 49.515625 72.90625 
L 49.515625 64.59375 
L 19.828125 64.59375 
L 19.828125 46.734375 
Q 21.96875 47.46875 24.109375 47.828125 
Q 26.265625 48.1875 28.421875 48.1875 
Q 40.625 48.1875 47.75 41.5 
Q 54.890625 34.8125 54.890625 23.390625 
Q 54.890625 11.625 47.5625 5.09375 
Q 40.234375 -1.421875 26.90625 -1.421875 
Q 22.3125 -1.421875 17.546875 -0.640625 
Q 12.796875 0.140625 7.71875 1.703125 
L 7.71875 11.625 
Q 12.109375 9.234375 16.796875 8.0625 
Q 21.484375 6.890625 26.703125 6.890625 
Q 35.15625 6.890625 40.078125 11.328125 
Q 45.015625 15.765625 45.015625 23.390625 
Q 45.015625 31 40.078125 35.4375 
Q 35.15625 39.890625 26.703125 39.890625 
Q 22.75 39.890625 18.8125 39.015625 
Q 14.890625 38.140625 10.796875 36.28125 
z
" id="DejaVuSans-53"/>
       </defs>
       <use xlink:href="#DejaVuSans-8722"/>
       <use x="83.789062" xlink:href="#DejaVuSans-49"/>
       <use x="147.412109" xlink:href="#DejaVuSans-46"/>
       <use x="179.199219" xlink:href="#DejaVuSans-53"/>
      </g>
     </g>
    </g>
    <g id="xtick_2">
     <g id="line2d_2">
      <g>
       <use style="stroke:#000000;stroke-width:0.8;" x="133.543613" xlink:href="#m462466c755" y="252"/>
      </g>
     </g>
     <g id="text_2">
      <!-- −1.0 -->
      <g transform="translate(121.402207 266.598437)scale(0.1 -0.1)">
       <defs>
        <path d="M 31.78125 66.40625 
Q 24.171875 66.40625 20.328125 58.90625 
Q 16.5 51.421875 16.5 36.375 
Q 16.5 21.390625 20.328125 13.890625 
Q 24.171875 6.390625 31.78125 6.390625 
Q 39.453125 6.390625 43.28125 13.890625 
Q 47.125 21.390625 47.125 36.375 
Q 47.125 51.421875 43.28125 58.90625 
Q 39.453125 66.40625 31.78125 66.40625 
z
M 31.78125 74.21875 
Q 44.046875 74.21875 50.515625 64.515625 
Q 56.984375 54.828125 56.984375 36.375 
Q 56.984375 17.96875 50.515625 8.265625 
Q 44.046875 -1.421875 31.78125 -1.421875 
Q 19.53125 -1.421875 13.0625 8.265625 
Q 6.59375 17.96875 6.59375 36.375 
Q 6.59375 54.828125 13.0625 64.515625 
Q 19.53125 74.21875 31.78125 74.21875 
z
" id="DejaVuSans-48"/>
       </defs>
       <use xlink:href="#DejaVuSans-8722"/>
       <use x="83.789062" xlink:href="#DejaVuSans-49"/>
       <use x="147.412109" xlink:href="#DejaVuSans-46"/>
       <use x="179.199219" xlink:href="#DejaVuSans-48"/>
      </g>
     </g>
    </g>
    <g id="xtick_3">
     <g id="line2d_3">
      <g>
       <use style="stroke:#000000;stroke-width:0.8;" x="177.471972" xlink:href="#m462466c755" y="252"/>
      </g>
     </g>
     <g id="text_3">
      <!-- −0.5 -->
      <g transform="translate(165.330566 266.598437)scale(0.1 -0.1)">
       <use xlink:href="#DejaVuSans-8722"/>
       <use x="83.789062" xlink:href="#DejaVuSans-48"/>
       <use x="147.412109" xlink:href="#DejaVuSans-46"/>
       <use x="179.199219" xlink:href="#DejaVuSans-53"/>
      </g>
     </g>
    </g>
    <g id="xtick_4">
     <g id="line2d_4">
      <g>
       <use style="stroke:#000000;stroke-width:0.8;" x="221.400331" xlink:href="#m462466c755" y="252"/>
      </g>
     </g>
     <g id="text_4">
      <!-- 0.0 -->
      <g transform="translate(213.448769 266.598437)scale(0.1 -0.1)">
       <use xlink:href="#DejaVuSans-48"/>
       <use x="63.623047" xlink:href="#DejaVuSans-46"/>
       <use x="95.410156" xlink:href="#DejaVuSans-48"/>
      </g>
     </g>
    </g>
    <g id="xtick_5">
     <g id="line2d_5">
      <g>
       <use style="stroke:#000000;stroke-width:0.8;" x="265.32869" xlink:href="#m462466c755" y="252"/>
      </g>
     </g>
     <g id="text_5">
      <!-- 0.5 -->
      <g transform="translate(257.377128 266.598437)scale(0.1 -0.1)">
       <use xlink:href="#DejaVuSans-48"/>
       <use x="63.623047" xlink:href="#DejaVuSans-46"/>
       <use x="95.410156" xlink:href="#DejaVuSans-53"/>
      </g>
     </g>
    </g>
    <g id="xtick_6">
     <g id="line2d_6">
      <g>
       <use style="stroke:#000000;stroke-width:0.8;" x="309.257049" xlink:href="#m462466c755" y="252"/>
      </g>
     </g>
     <g id="text_6">
      <!-- 1.0 -->
      <g transform="translate(301.305487 266.598437)scale(0.1 -0.1)">
       <use xlink:href="#DejaVuSans-49"/>
       <use x="63.623047" xlink:href="#DejaVuSans-46"/>
       <use x="95.410156" xlink:href="#DejaVuSans-48"/>
      </g>
     </g>
    </g>
    <g id="xtick_7">
     <g id="line2d_7">
      <g>
       <use style="stroke:#000000;stroke-width:0.8;" x="353.185408" xlink:href="#m462466c755" y="252"/>
      </g>
     </g>
     <g id="text_7">
      <!-- 1.5 -->
      <g transform="translate(345.233846 266.598437)scale(0.1 -0.1)">
       <use xlink:href="#DejaVuSans-49"/>
       <use x="63.623047" xlink:href="#DejaVuSans-46"/>
       <use x="95.410156" xlink:href="#DejaVuSans-53"/>
      </g>
     </g>
    </g>
    <g id="text_8">
     <!-- axial stretch $\lambda_1$ -->
     <g transform="translate(183.45 280.276563)scale(0.1 -0.1)">
      <defs>
       <path d="M 34.28125 27.484375 
Q 23.390625 27.484375 19.1875 25 
Q 14.984375 22.515625 14.984375 16.5 
Q 14.984375 11.71875 18.140625 8.90625 
Q 21.296875 6.109375 26.703125 6.109375 
Q 34.1875 6.109375 38.703125 11.40625 
Q 43.21875 16.703125 43.21875 25.484375 
L 43.21875 27.484375 
z
M 52.203125 31.203125 
L 52.203125 0 
L 43.21875 0 
L 43.21875 8.296875 
Q 40.140625 3.328125 35.546875 0.953125 
Q 30.953125 -1.421875 24.3125 -1.421875 
Q 15.921875 -1.421875 10.953125 3.296875 
Q 6 8.015625 6 15.921875 
Q 6 25.140625 12.171875 29.828125 
Q 18.359375 34.515625 30.609375 34.515625 
L 43.21875 34.515625 
L 43.21875 35.40625 
Q 43.21875 41.609375 39.140625 45 
Q 35.0625 48.390625 27.6875 48.390625 
Q 23 48.390625 18.546875 47.265625 
Q 14.109375 46.140625 10.015625 43.890625 
L 10.015625 52.203125 
Q 14.9375 54.109375 19.578125 55.046875 
Q 24.21875 56 28.609375 56 
Q 40.484375 56 46.34375 49.84375 
Q 52.203125 43.703125 52.203125 31.203125 
z
" id="DejaVuSans-97"/>
       <path d="M 54.890625 54.6875 
L 35.109375 28.078125 
L 55.90625 0 
L 45.3125 0 
L 29.390625 21.484375 
L 13.484375 0 
L 2.875 0 
L 24.125 28.609375 
L 4.6875 54.6875 
L 15.28125 54.6875 
L 29.78125 35.203125 
L 44.28125 54.6875 
z
" id="DejaVuSans-120"/>
       <path d="M 9.421875 54.6875 
L 18.40625 54.6875 
L 18.40625 0 
L 9.421875 0 
z
M 9.421875 75.984375 
L 18.40625 75.984375 
L 18.40625 64.59375 
L 9.421875 64.59375 
z
" id="DejaVuSans-105"/>
       <path d="M 9.421875 75.984375 
L 18.40625 75.984375 
L 18.40625 0 
L 9.421875 0 
z
" id="DejaVuSans-108"/>
       <path id="DejaVuSans-32"/>
       <path d="M 44.28125 53.078125 
L 44.28125 44.578125 
Q 40.484375 46.53125 36.375 47.5 
Q 32.28125 48.484375 27.875 48.484375 
Q 21.1875 48.484375 17.84375 46.4375 
Q 14.5 44.390625 14.5 40.28125 
Q 14.5 37.15625 16.890625 35.375 
Q 19.28125 33.59375 26.515625 31.984375 
L 29.59375 31.296875 
Q 39.15625 29.25 43.1875 25.515625 
Q 47.21875 21.78125 47.21875 15.09375 
Q 47.21875 7.46875 41.1875 3.015625 
Q 35.15625 -1.421875 24.609375 -1.421875 
Q 20.21875 -1.421875 15.453125 -0.5625 
Q 10.6875 0.296875 5.421875 2 
L 5.421875 11.28125 
Q 10.40625 8.6875 15.234375 7.390625 
Q 20.0625 6.109375 24.8125 6.109375 
Q 31.15625 6.109375 34.5625 8.28125 
Q 37.984375 10.453125 37.984375 14.40625 
Q 37.984375 18.0625 35.515625 20.015625 
Q 33.0625 21.96875 24.703125 23.78125 
L 21.578125 24.515625 
Q 13.234375 26.265625 9.515625 29.90625 
Q 5.8125 33.546875 5.8125 39.890625 
Q 5.8125 47.609375 11.28125 51.796875 
Q 16.75 56 26.8125 56 
Q 31.78125 56 36.171875 55.265625 
Q 40.578125 54.546875 44.28125 53.078125 
z
" id="DejaVuSans-115"/>
       <path d="M 18.3125 70.21875 
L 18.3125 54.6875 
L 36.8125 54.6875 
L 36.8125 47.703125 
L 18.3125 47.703125 
L 18.3125 18.015625 
Q 18.3125 11.328125 20.140625 9.421875 
Q 21.96875 7.515625 27.59375 7.515625 
L 36.8125 7.515625 
L 36.8125 0 
L 27.59375 0 
Q 17.1875 0 13.234375 3.875 
Q 9.28125 7.765625 9.28125 18.015625 
L 9.28125 47.703125 
L 2.6875 47.703125 
L 2.6875 54.6875 
L 9.28125 54.6875 
L 9.28125 70.21875 
z
" id="DejaVuSans-116"/>
       <path d="M 41.109375 46.296875 
Q 39.59375 47.171875 37.8125 47.578125 
Q 36.03125 48 33.890625 48 
Q 26.265625 48 22.1875 43.046875 
Q 18.109375 38.09375 18.109375 28.8125 
L 18.109375 0 
L 9.078125 0 
L 9.078125 54.6875 
L 18.109375 54.6875 
L 18.109375 46.1875 
Q 20.953125 51.171875 25.484375 53.578125 
Q 30.03125 56 36.53125 56 
Q 37.453125 56 38.578125 55.875 
Q 39.703125 55.765625 41.0625 55.515625 
z
" id="DejaVuSans-114"/>
       <path d="M 56.203125 29.59375 
L 56.203125 25.203125 
L 14.890625 25.203125 
Q 15.484375 15.921875 20.484375 11.0625 
Q 25.484375 6.203125 34.421875 6.203125 
Q 39.59375 6.203125 44.453125 7.46875 
Q 49.3125 8.734375 54.109375 11.28125 
L 54.109375 2.78125 
Q 49.265625 0.734375 44.1875 -0.34375 
Q 39.109375 -1.421875 33.890625 -1.421875 
Q 20.796875 -1.421875 13.15625 6.1875 
Q 5.515625 13.8125 5.515625 26.8125 
Q 5.515625 40.234375 12.765625 48.109375 
Q 20.015625 56 32.328125 56 
Q 43.359375 56 49.78125 48.890625 
Q 56.203125 41.796875 56.203125 29.59375 
z
M 47.21875 32.234375 
Q 47.125 39.59375 43.09375 43.984375 
Q 39.0625 48.390625 32.421875 48.390625 
Q 24.90625 48.390625 20.390625 44.140625 
Q 15.875 39.890625 15.1875 32.171875 
z
" id="DejaVuSans-101"/>
       <path d="M 48.78125 52.59375 
L 48.78125 44.1875 
Q 44.96875 46.296875 41.140625 47.34375 
Q 37.3125 48.390625 33.40625 48.390625 
Q 24.65625 48.390625 19.8125 42.84375 
Q 14.984375 37.3125 14.984375 27.296875 
Q 14.984375 17.28125 19.8125 11.734375 
Q 24.65625 6.203125 33.40625 6.203125 
Q 37.3125 6.203125 41.140625 7.25 
Q 44.96875 8.296875 48.78125 10.40625 
L 48.78125 2.09375 
Q 45.015625 0.34375 40.984375 -0.53125 
Q 36.96875 -1.421875 32.421875 -1.421875 
Q 20.0625 -1.421875 12.78125 6.34375 
Q 5.515625 14.109375 5.515625 27.296875 
Q 5.515625 40.671875 12.859375 48.328125 
Q 20.21875 56 33.015625 56 
Q 37.15625 56 41.109375 55.140625 
Q 45.0625 54.296875 48.78125 52.59375 
z
" id="DejaVuSans-99"/>
       <path d="M 54.890625 33.015625 
L 54.890625 0 
L 45.90625 0 
L 45.90625 32.71875 
Q 45.90625 40.484375 42.875 44.328125 
Q 39.84375 48.1875 33.796875 48.1875 
Q 26.515625 48.1875 22.3125 43.546875 
Q 18.109375 38.921875 18.109375 30.90625 
L 18.109375 0 
L 9.078125 0 
L 9.078125 75.984375 
L 18.109375 75.984375 
L 18.109375 46.1875 
Q 21.34375 51.125 25.703125 53.5625 
Q 30.078125 56 35.796875 56 
Q 45.21875 56 50.046875 50.171875 
Q 54.890625 44.34375 54.890625 33.015625 
z
" id="DejaVuSans-104"/>
       <path d="M 36.71875 67.4375 
L 48.828125 0 
L 39.3125 0 
L 31.84375 40.4375 
L 5.125 0 
L -4.390625 0 
L 29.734375 52.4375 
L 28.03125 62.109375 
Q 26.953125 68.265625 21.734375 68.265625 
L 17.046875 68.265625 
L 18.5 75.984375 
L 24.21875 75.875 
Q 35.203125 75.734375 36.71875 67.4375 
z
" id="DejaVuSans-Oblique-955"/>
      </defs>
      <use transform="translate(0 0.015625)" xlink:href="#DejaVuSans-97"/>
      <use transform="translate(61.279297 0.015625)" xlink:href="#DejaVuSans-120"/>
      <use transform="translate(120.458984 0.015625)" xlink:href="#DejaVuSans-105"/>
      <use transform="translate(148.242188 0.015625)" xlink:href="#DejaVuSans-97"/>
      <use transform="translate(209.521484 0.015625)" xlink:href="#DejaVuSans-108"/>
      <use transform="translate(237.304688 0.015625)" xlink:href="#DejaVuSans-32"/>
      <use transform="translate(269.091797 0.015625)" xlink:href="#DejaVuSans-115"/>
      <use transform="translate(321.191406 0.015625)" xlink:href="#DejaVuSans-116"/>
      <use transform="translate(360.400391 0.015625)" xlink:href="#DejaVuSans-114"/>
      <use transform="translate(401.513672 0.015625)" xlink:href="#DejaVuSans-101"/>
      <use transform="translate(463.037109 0.015625)" xlink:href="#DejaVuSans-116"/>
      <use transform="translate(502.246094 0.015625)" xlink:href="#DejaVuSans-99"/>
      <use transform="translate(557.226562 0.015625)" xlink:href="#DejaVuSans-104"/>
      <use transform="translate(620.605469 0.015625)" xlink:href="#DejaVuSans-32"/>
      <use transform="translate(652.392578 0.015625)" xlink:href="#DejaVuSans-Oblique-955"/>
      <use transform="translate(711.572266 -16.390625)scale(0.7)" xlink:href="#DejaVuSans-49"/>
     </g>
    </g>
   </g>
   <g id="matplotlib.axis_2">
    <g id="ytick_1">
     <g id="line2d_8">
      <defs>
       <path d="M 0 0 
L -3.5 0 
" id="mf1aef08228" style="stroke:#000000;stroke-width:0.8;"/>
      </defs>
      <g>
       <use style="stroke:#000000;stroke-width:0.8;" x="54" xlink:href="#mf1aef08228" y="219.349445"/>
      </g>
     </g>
     <g id="text_9">
      <!-- −4 -->
      <g transform="translate(32.257812 223.148664)scale(0.1 -0.1)">
       <defs>
        <path d="M 37.796875 64.3125 
L 12.890625 25.390625 
L 37.796875 25.390625 
z
M 35.203125 72.90625 
L 47.609375 72.90625 
L 47.609375 25.390625 
L 58.015625 25.390625 
L 58.015625 17.1875 
L 47.609375 17.1875 
L 47.609375 0 
L 37.796875 0 
L 37.796875 17.1875 
L 4.890625 17.1875 
L 4.890625 26.703125 
z
" id="DejaVuSans-52"/>
       </defs>
       <use xlink:href="#DejaVuSans-8722"/>
       <use x="83.789062" xlink:href="#DejaVuSans-52"/>
      </g>
     </g>
    </g>
    <g id="ytick_2">
     <g id="line2d_9">
      <g>
       <use style="stroke:#000000;stroke-width:0.8;" x="54" xlink:href="#mf1aef08228" y="181.314292"/>
      </g>
     </g>
     <g id="text_10">
      <!-- −2 -->
      <g transform="translate(32.257812 185.113511)scale(0.1 -0.1)">
       <defs>
        <path d="M 19.1875 8.296875 
L 53.609375 8.296875 
L 53.609375 0 
L 7.328125 0 
L 7.328125 8.296875 
Q 12.9375 14.109375 22.625 23.890625 
Q 32.328125 33.6875 34.8125 36.53125 
Q 39.546875 41.84375 41.421875 45.53125 
Q 43.3125 49.21875 43.3125 52.78125 
Q 43.3125 58.59375 39.234375 62.25 
Q 35.15625 65.921875 28.609375 65.921875 
Q 23.96875 65.921875 18.8125 64.3125 
Q 13.671875 62.703125 7.8125 59.421875 
L 7.8125 69.390625 
Q 13.765625 71.78125 18.9375 73 
Q 24.125 74.21875 28.421875 74.21875 
Q 39.75 74.21875 46.484375 68.546875 
Q 53.21875 62.890625 53.21875 53.421875 
Q 53.21875 48.921875 51.53125 44.890625 
Q 49.859375 40.875 45.40625 35.40625 
Q 44.1875 33.984375 37.640625 27.21875 
Q 31.109375 20.453125 19.1875 8.296875 
z
" id="DejaVuSans-50"/>
       </defs>
       <use xlink:href="#DejaVuSans-8722"/>
       <use x="83.789062" xlink:href="#DejaVuSans-50"/>
      </g>
     </g>
    </g>
    <g id="ytick_3">
     <g id="line2d_10">
      <g>
       <use style="stroke:#000000;stroke-width:0.8;" x="54" xlink:href="#mf1aef08228" y="143.27914"/>
      </g>
     </g>
     <g id="text_11">
      <!-- 0 -->
      <g transform="translate(40.6375 147.078358)scale(0.1 -0.1)">
       <use xlink:href="#DejaVuSans-48"/>
      </g>
     </g>
    </g>
    <g id="ytick_4">
     <g id="line2d_11">
      <g>
       <use style="stroke:#000000;stroke-width:0.8;" x="54" xlink:href="#mf1aef08228" y="105.243987"/>
      </g>
     </g>
     <g id="text_12">
      <!-- 2 -->
      <g transform="translate(40.6375 109.043206)scale(0.1 -0.1)">
       <use xlink:href="#DejaVuSans-50"/>
      </g>
     </g>
    </g>
    <g id="ytick_5">
     <g id="line2d_12">
      <g>
       <use style="stroke:#000000;stroke-width:0.8;" x="54" xlink:href="#mf1aef08228" y="67.208834"/>
      </g>
     </g>
     <g id="text_13">
      <!-- 4 -->
      <g transform="translate(40.6375 71.008053)scale(0.1 -0.1)">
       <use xlink:href="#DejaVuSans-52"/>
      </g>
     </g>
    </g>
    <g id="text_14">
     <!-- load-proportionality-factor LPF -->
     <g transform="translate(26.178125 219.205781)rotate(-90)scale(0.1 -0.1)">
      <defs>
       <path d="M 30.609375 48.390625 
Q 23.390625 48.390625 19.1875 42.75 
Q 14.984375 37.109375 14.984375 27.296875 
Q 14.984375 17.484375 19.15625 11.84375 
Q 23.34375 6.203125 30.609375 6.203125 
Q 37.796875 6.203125 41.984375 11.859375 
Q 46.1875 17.53125 46.1875 27.296875 
Q 46.1875 37.015625 41.984375 42.703125 
Q 37.796875 48.390625 30.609375 48.390625 
z
M 30.609375 56 
Q 42.328125 56 49.015625 48.375 
Q 55.71875 40.765625 55.71875 27.296875 
Q 55.71875 13.875 49.015625 6.21875 
Q 42.328125 -1.421875 30.609375 -1.421875 
Q 18.84375 -1.421875 12.171875 6.21875 
Q 5.515625 13.875 5.515625 27.296875 
Q 5.515625 40.765625 12.171875 48.375 
Q 18.84375 56 30.609375 56 
z
" id="DejaVuSans-111"/>
       <path d="M 45.40625 46.390625 
L 45.40625 75.984375 
L 54.390625 75.984375 
L 54.390625 0 
L 45.40625 0 
L 45.40625 8.203125 
Q 42.578125 3.328125 38.25 0.953125 
Q 33.9375 -1.421875 27.875 -1.421875 
Q 17.96875 -1.421875 11.734375 6.484375 
Q 5.515625 14.40625 5.515625 27.296875 
Q 5.515625 40.1875 11.734375 48.09375 
Q 17.96875 56 27.875 56 
Q 33.9375 56 38.25 53.625 
Q 42.578125 51.265625 45.40625 46.390625 
z
M 14.796875 27.296875 
Q 14.796875 17.390625 18.875 11.75 
Q 22.953125 6.109375 30.078125 6.109375 
Q 37.203125 6.109375 41.296875 11.75 
Q 45.40625 17.390625 45.40625 27.296875 
Q 45.40625 37.203125 41.296875 42.84375 
Q 37.203125 48.484375 30.078125 48.484375 
Q 22.953125 48.484375 18.875 42.84375 
Q 14.796875 37.203125 14.796875 27.296875 
z
" id="DejaVuSans-100"/>
       <path d="M 4.890625 31.390625 
L 31.203125 31.390625 
L 31.203125 23.390625 
L 4.890625 23.390625 
z
" id="DejaVuSans-45"/>
       <path d="M 18.109375 8.203125 
L 18.109375 -20.796875 
L 9.078125 -20.796875 
L 9.078125 54.6875 
L 18.109375 54.6875 
L 18.109375 46.390625 
Q 20.953125 51.265625 25.265625 53.625 
Q 29.59375 56 35.59375 56 
Q 45.5625 56 51.78125 48.09375 
Q 58.015625 40.1875 58.015625 27.296875 
Q 58.015625 14.40625 51.78125 6.484375 
Q 45.5625 -1.421875 35.59375 -1.421875 
Q 29.59375 -1.421875 25.265625 0.953125 
Q 20.953125 3.328125 18.109375 8.203125 
z
M 48.6875 27.296875 
Q 48.6875 37.203125 44.609375 42.84375 
Q 40.53125 48.484375 33.40625 48.484375 
Q 26.265625 48.484375 22.1875 42.84375 
Q 18.109375 37.203125 18.109375 27.296875 
Q 18.109375 17.390625 22.1875 11.75 
Q 26.265625 6.109375 33.40625 6.109375 
Q 40.53125 6.109375 44.609375 11.75 
Q 48.6875 17.390625 48.6875 27.296875 
z
" id="DejaVuSans-112"/>
       <path d="M 54.890625 33.015625 
L 54.890625 0 
L 45.90625 0 
L 45.90625 32.71875 
Q 45.90625 40.484375 42.875 44.328125 
Q 39.84375 48.1875 33.796875 48.1875 
Q 26.515625 48.1875 22.3125 43.546875 
Q 18.109375 38.921875 18.109375 30.90625 
L 18.109375 0 
L 9.078125 0 
L 9.078125 54.6875 
L 18.109375 54.6875 
L 18.109375 46.1875 
Q 21.34375 51.125 25.703125 53.5625 
Q 30.078125 56 35.796875 56 
Q 45.21875 56 50.046875 50.171875 
Q 54.890625 44.34375 54.890625 33.015625 
z
" id="DejaVuSans-110"/>
       <path d="M 32.171875 -5.078125 
Q 28.375 -14.84375 24.75 -17.8125 
Q 21.140625 -20.796875 15.09375 -20.796875 
L 7.90625 -20.796875 
L 7.90625 -13.28125 
L 13.1875 -13.28125 
Q 16.890625 -13.28125 18.9375 -11.515625 
Q 21 -9.765625 23.484375 -3.21875 
L 25.09375 0.875 
L 2.984375 54.6875 
L 12.5 54.6875 
L 29.59375 11.921875 
L 46.6875 54.6875 
L 56.203125 54.6875 
z
" id="DejaVuSans-121"/>
       <path d="M 37.109375 75.984375 
L 37.109375 68.5 
L 28.515625 68.5 
Q 23.6875 68.5 21.796875 66.546875 
Q 19.921875 64.59375 19.921875 59.515625 
L 19.921875 54.6875 
L 34.71875 54.6875 
L 34.71875 47.703125 
L 19.921875 47.703125 
L 19.921875 0 
L 10.890625 0 
L 10.890625 47.703125 
L 2.296875 47.703125 
L 2.296875 54.6875 
L 10.890625 54.6875 
L 10.890625 58.5 
Q 10.890625 67.625 15.140625 71.796875 
Q 19.390625 75.984375 28.609375 75.984375 
z
" id="DejaVuSans-102"/>
       <path d="M 9.8125 72.90625 
L 19.671875 72.90625 
L 19.671875 8.296875 
L 55.171875 8.296875 
L 55.171875 0 
L 9.8125 0 
z
" id="DejaVuSans-76"/>
       <path d="M 19.671875 64.796875 
L 19.671875 37.40625 
L 32.078125 37.40625 
Q 38.96875 37.40625 42.71875 40.96875 
Q 46.484375 44.53125 46.484375 51.125 
Q 46.484375 57.671875 42.71875 61.234375 
Q 38.96875 64.796875 32.078125 64.796875 
z
M 9.8125 72.90625 
L 32.078125 72.90625 
Q 44.34375 72.90625 50.609375 67.359375 
Q 56.890625 61.8125 56.890625 51.125 
Q 56.890625 40.328125 50.609375 34.8125 
Q 44.34375 29.296875 32.078125 29.296875 
L 19.671875 29.296875 
L 19.671875 0 
L 9.8125 0 
z
" id="DejaVuSans-80"/>
       <path d="M 9.8125 72.90625 
L 51.703125 72.90625 
L 51.703125 64.59375 
L 19.671875 64.59375 
L 19.671875 43.109375 
L 48.578125 43.109375 
L 48.578125 34.8125 
L 19.671875 34.8125 
L 19.671875 0 
L 9.8125 0 
z
" id="DejaVuSans-70"/>
      </defs>
      <use xlink:href="#DejaVuSans-108"/>
      <use x="27.783203" xlink:href="#DejaVuSans-111"/>
      <use x="88.964844" xlink:href="#DejaVuSans-97"/>
      <use x="150.244141" xlink:href="#DejaVuSans-100"/>
      <use x="213.720703" xlink:href="#DejaVuSans-45"/>
      <use x="249.804688" xlink:href="#DejaVuSans-112"/>
      <use x="313.28125" xlink:href="#DejaVuSans-114"/>
      <use x="352.144531" xlink:href="#DejaVuSans-111"/>
      <use x="413.326172" xlink:href="#DejaVuSans-112"/>
      <use x="476.802734" xlink:href="#DejaVuSans-111"/>
      <use x="537.984375" xlink:href="#DejaVuSans-114"/>
      <use x="579.097656" xlink:href="#DejaVuSans-116"/>
      <use x="618.306641" xlink:href="#DejaVuSans-105"/>
      <use x="646.089844" xlink:href="#DejaVuSans-111"/>
      <use x="707.271484" xlink:href="#DejaVuSans-110"/>
      <use x="770.650391" xlink:href="#DejaVuSans-97"/>
      <use x="831.929688" xlink:href="#DejaVuSans-108"/>
      <use x="859.712891" xlink:href="#DejaVuSans-105"/>
      <use x="887.496094" xlink:href="#DejaVuSans-116"/>
      <use x="926.705078" xlink:href="#DejaVuSans-121"/>
      <use x="984.134766" xlink:href="#DejaVuSans-45"/>
      <use x="1020.21875" xlink:href="#DejaVuSans-102"/>
      <use x="1055.423828" xlink:href="#DejaVuSans-97"/>
      <use x="1116.703125" xlink:href="#DejaVuSans-99"/>
      <use x="1171.683594" xlink:href="#DejaVuSans-116"/>
      <use x="1210.892578" xlink:href="#DejaVuSans-111"/>
      <use x="1272.074219" xlink:href="#DejaVuSans-114"/>
      <use x="1313.1875" xlink:href="#DejaVuSans-32"/>
      <use x="1344.974609" xlink:href="#DejaVuSans-76"/>
      <use x="1400.6875" xlink:href="#DejaVuSans-80"/>
      <use x="1460.990234" xlink:href="#DejaVuSans-70"/>
     </g>
    </g>
   </g>
   <g id="line2d_13">
    <path clip-path="url(#p3d2f4aa232)" d="M 309.257049 143.27914 
L 313.358504 140.426503 
L 316.775977 137.752156 
L 318.961683 135.894971 
L 321.517965 133.57349 
L 324.485025 130.671638 
L 327.903145 127.044323 
L 331.812468 122.51018 
L 336.253007 116.8425 
L 341.264857 109.757901 
L 346.621563 101.344939 
L 352.081635 91.836151 
L 357.051497 82.327363 
L 361.630546 72.818575 
L 365.889133 63.309787 
L 371.786146 49.046604 
L 373.581818 44.443636 
L 368.574699 56.974535 
L 365.606492 63.961155 
L 361.167532 73.813381 
L 358.124461 80.164548 
L 354.293548 87.706559 
L 349.379265 96.662697 
L 343.617928 106.171485 
L 337.11241 115.680273 
L 329.546645 125.189061 
L 320.302272 134.697849 
L 307.792253 144.206637 
L 298.670001 148.961032 
L 292.199957 151.338229 
L 281.217867 153.697304 
L 270.235777 154.235662 
L 256.508165 152.85747 
L 247.928408 151.106762 
L 240.724427 149.249577 
L 234.350729 147.392391 
L 219.208817 142.568063 
L 209.407879 139.458094 
L 203.157305 137.61155 
L 196.177561 135.765005 
L 187.646963 133.937925 
L 176.450553 132.505388 
L 162.45504 132.756052 
L 158.081442 133.399441 
L 153.7171 134.346156 
L 150.365768 135.29287 
L 147.078357 136.417094 
L 143.772384 137.752109 
L 140.394395 139.33744 
L 136.733761 141.319103 
L 132.757925 143.796183 
L 128.636158 146.737714 
L 124.335965 150.230783 
L 119.828523 154.378803 
L 115.087157 159.304576 
L 110.086396 165.153931 
L 104.801347 172.100041 
L 99.207256 180.348546 
L 93.443357 189.857334 
L 88.237567 199.366122 
L 83.468869 208.87491 
L 79.053793 218.383698 
L 72.966466 232.646881 
L 69.218182 242.116364 
L 75.107138 227.475764 
L 78.223451 220.249591 
L 82.900949 210.059557 
L 86.120991 203.490625 
L 90.19271 195.690019 
L 95.450522 186.426798 
L 101.456833 176.91801 
L 108.302257 167.409222 
L 116.38219 157.900434 
L 126.531942 148.391645 
L 141.314626 138.882857 
L 154.602516 134.128463 
L 160.09356 133.066755 
L 165.584605 132.471557 
L 171.07565 132.301087 
L 178.282647 132.651888 
L 187.741829 133.955124 
L 193.653819 135.169172 
L 198.883894 136.448888 
L 203.570045 137.728605 
L 215.049007 141.22783 
L 230.374181 146.162285 
L 241.062924 149.343245 
L 248.037844 151.132536 
L 256.303944 152.822742 
L 264.570044 153.911061 
L 275.4193 154.187219 
L 288.98087 152.238055 
L 299.56692 148.568612 
L 306.647009 144.899169 
L 312.891004 140.771045 
L 318.991421 135.868898 
L 325.094326 130.047599 
L 331.294729 123.134805 
L 337.661904 114.925864 
L 344.09917 105.417076 
L 349.810586 95.908287 
L 354.975969 86.399499 
L 359.71239 76.890711 
L 364.100963 67.381923 
L 370.156207 53.118741 
L 373.577281 44.455422 
L 367.632665 59.227045 
L 364.389134 66.733502 
L 359.507153 77.318781 
L 356.135535 84.142505 
L 351.857434 92.245677 
L 346.373375 101.754465 
L 340.242826 111.263254 
L 333.221726 120.772042 
L 324.867708 130.28083 
L 314.205135 139.789618 
L 297.868547 149.298406 
L 291.067006 151.675603 
L 291.067006 151.675603 
" style="fill:none;stroke:#1f77b4;stroke-linecap:square;stroke-width:1.5;"/>
    <defs>
     <path d="M 0 1.5 
C 0.397805 1.5 0.77937 1.341951 1.06066 1.06066 
C 1.341951 0.77937 1.5 0.397805 1.5 0 
C 1.5 -0.397805 1.341951 -0.77937 1.06066 -1.06066 
C 0.77937 -1.341951 0.397805 -1.5 0 -1.5 
C -0.397805 -1.5 -0.77937 -1.341951 -1.06066 -1.06066 
C -1.341951 -0.77937 -1.5 -0.397805 -1.5 0 
C -1.5 0.397805 -1.341951 0.77937 -1.06066 1.06066 
C -0.77937 1.341951 -0.397805 1.5 0 1.5 
z
" id="m4ebcfa6eb7" style="stroke:#1f77b4;"/>
    </defs>
    <g clip-path="url(#p3d2f4aa232)">
     <use style="fill:#1f77b4;stroke:#1f77b4;" x="309.257049" xlink:href="#m4ebcfa6eb7" y="143.27914"/>
     <use style="fill:#1f77b4;stroke:#1f77b4;" x="310.686357" xlink:href="#m4ebcfa6eb7" y="142.328261"/>
     <use style="fill:#1f77b4;stroke:#1f77b4;" x="312.051102" xlink:href="#m4ebcfa6eb7" y="141.377382"/>
     <use style="fill:#1f77b4;stroke:#1f77b4;" x="313.358504" xlink:href="#m4ebcfa6eb7" y="140.426503"/>
     <use style="fill:#1f77b4;stroke:#1f77b4;" x="314.921135" xlink:href="#m4ebcfa6eb7" y="139.237905"/>
     <use style="fill:#1f77b4;stroke:#1f77b4;" x="316.775977" xlink:href="#m4ebcfa6eb7" y="137.752156"/>
     <use style="fill:#1f77b4;stroke:#1f77b4;" x="318.961683" xlink:href="#m4ebcfa6eb7" y="135.894971"/>
     <use style="fill:#1f77b4;stroke:#1f77b4;" x="321.517965" xlink:href="#m4ebcfa6eb7" y="133.57349"/>
     <use style="fill:#1f77b4;stroke:#1f77b4;" x="324.485025" xlink:href="#m4ebcfa6eb7" y="130.671638"/>
     <use style="fill:#1f77b4;stroke:#1f77b4;" x="327.903145" xlink:href="#m4ebcfa6eb7" y="127.044323"/>
     <use style="fill:#1f77b4;stroke:#1f77b4;" x="331.812468" xlink:href="#m4ebcfa6eb7" y="122.51018"/>
     <use style="fill:#1f77b4;stroke:#1f77b4;" x="336.253007" xlink:href="#m4ebcfa6eb7" y="116.8425"/>
     <use style="fill:#1f77b4;stroke:#1f77b4;" x="341.264857" xlink:href="#m4ebcfa6eb7" y="109.757901"/>
     <use style="fill:#1f77b4;stroke:#1f77b4;" x="346.621563" xlink:href="#m4ebcfa6eb7" y="101.344939"/>
     <use style="fill:#1f77b4;stroke:#1f77b4;" x="352.081635" xlink:href="#m4ebcfa6eb7" y="91.836151"/>
     <use style="fill:#1f77b4;stroke:#1f77b4;" x="357.051497" xlink:href="#m4ebcfa6eb7" y="82.327363"/>
     <use style="fill:#1f77b4;stroke:#1f77b4;" x="361.630546" xlink:href="#m4ebcfa6eb7" y="72.818575"/>
     <use style="fill:#1f77b4;stroke:#1f77b4;" x="365.889133" xlink:href="#m4ebcfa6eb7" y="63.309787"/>
     <use style="fill:#1f77b4;stroke:#1f77b4;" x="369.879141" xlink:href="#m4ebcfa6eb7" y="53.800998"/>
     <use style="fill:#1f77b4;stroke:#1f77b4;" x="371.786146" xlink:href="#m4ebcfa6eb7" y="49.046604"/>
     <use style="fill:#1f77b4;stroke:#1f77b4;" x="372.719513" xlink:href="#m4ebcfa6eb7" y="46.669407"/>
     <use style="fill:#1f77b4;stroke:#1f77b4;" x="373.181368" xlink:href="#m4ebcfa6eb7" y="45.480809"/>
     <use style="fill:#1f77b4;stroke:#1f77b4;" x="373.411114" xlink:href="#m4ebcfa6eb7" y="44.886509"/>
     <use style="fill:#1f77b4;stroke:#1f77b4;" x="373.546052" xlink:href="#m4ebcfa6eb7" y="44.536523"/>
     <use style="fill:#1f77b4;stroke:#1f77b4;" x="373.581818" xlink:href="#m4ebcfa6eb7" y="44.443636"/>
     <use style="fill:#1f77b4;stroke:#1f77b4;" x="373.478353" xlink:href="#m4ebcfa6eb7" y="44.712205"/>
     <use style="fill:#1f77b4;stroke:#1f77b4;" x="373.082784" xlink:href="#m4ebcfa6eb7" y="45.735207"/>
     <use style="fill:#1f77b4;stroke:#1f77b4;" x="372.559654" xlink:href="#m4ebcfa6eb7" y="47.07891"/>
     <use style="fill:#1f77b4;stroke:#1f77b4;" x="371.999319" xlink:href="#m4ebcfa6eb7" y="48.506593"/>
     <use style="fill:#1f77b4;stroke:#1f77b4;" x="371.363268" xlink:href="#m4ebcfa6eb7" y="50.112738"/>
     <use style="fill:#1f77b4;stroke:#1f77b4;" x="370.599956" xlink:href="#m4ebcfa6eb7" y="52.020034"/>
     <use style="fill:#1f77b4;stroke:#1f77b4;" x="369.681895" xlink:href="#m4ebcfa6eb7" y="54.284949"/>
     <use style="fill:#1f77b4;stroke:#1f77b4;" x="368.574699" xlink:href="#m4ebcfa6eb7" y="56.974535"/>
     <use style="fill:#1f77b4;stroke:#1f77b4;" x="367.23485" xlink:href="#m4ebcfa6eb7" y="60.168418"/>
     <use style="fill:#1f77b4;stroke:#1f77b4;" x="365.606492" xlink:href="#m4ebcfa6eb7" y="63.961155"/>
     <use style="fill:#1f77b4;stroke:#1f77b4;" x="363.616615" xlink:href="#m4ebcfa6eb7" y="68.46503"/>
     <use style="fill:#1f77b4;stroke:#1f77b4;" x="361.167532" xlink:href="#m4ebcfa6eb7" y="73.813381"/>
     <use style="fill:#1f77b4;stroke:#1f77b4;" x="358.124461" xlink:href="#m4ebcfa6eb7" y="80.164548"/>
     <use style="fill:#1f77b4;stroke:#1f77b4;" x="354.293548" xlink:href="#m4ebcfa6eb7" y="87.706559"/>
     <use style="fill:#1f77b4;stroke:#1f77b4;" x="349.379265" xlink:href="#m4ebcfa6eb7" y="96.662697"/>
     <use style="fill:#1f77b4;stroke:#1f77b4;" x="343.617928" xlink:href="#m4ebcfa6eb7" y="106.171485"/>
     <use style="fill:#1f77b4;stroke:#1f77b4;" x="337.11241" xlink:href="#m4ebcfa6eb7" y="115.680273"/>
     <use style="fill:#1f77b4;stroke:#1f77b4;" x="329.546645" xlink:href="#m4ebcfa6eb7" y="125.189061"/>
     <use style="fill:#1f77b4;stroke:#1f77b4;" x="320.302272" xlink:href="#m4ebcfa6eb7" y="134.697849"/>
     <use style="fill:#1f77b4;stroke:#1f77b4;" x="307.792253" xlink:href="#m4ebcfa6eb7" y="144.206637"/>
     <use style="fill:#1f77b4;stroke:#1f77b4;" x="298.670001" xlink:href="#m4ebcfa6eb7" y="148.961032"/>
     <use style="fill:#1f77b4;stroke:#1f77b4;" x="292.199957" xlink:href="#m4ebcfa6eb7" y="151.338229"/>
     <use style="fill:#1f77b4;stroke:#1f77b4;" x="281.217867" xlink:href="#m4ebcfa6eb7" y="153.697304"/>
     <use style="fill:#1f77b4;stroke:#1f77b4;" x="270.235777" xlink:href="#m4ebcfa6eb7" y="154.235662"/>
     <use style="fill:#1f77b4;stroke:#1f77b4;" x="256.508165" xlink:href="#m4ebcfa6eb7" y="152.85747"/>
     <use style="fill:#1f77b4;stroke:#1f77b4;" x="247.928408" xlink:href="#m4ebcfa6eb7" y="151.106762"/>
     <use style="fill:#1f77b4;stroke:#1f77b4;" x="240.724427" xlink:href="#m4ebcfa6eb7" y="149.249577"/>
     <use style="fill:#1f77b4;stroke:#1f77b4;" x="234.350729" xlink:href="#m4ebcfa6eb7" y="147.392391"/>
     <use style="fill:#1f77b4;stroke:#1f77b4;" x="227.303231" xlink:href="#m4ebcfa6eb7" y="145.186984"/>
     <use style="fill:#1f77b4;stroke:#1f77b4;" x="219.208817" xlink:href="#m4ebcfa6eb7" y="142.568063"/>
     <use style="fill:#1f77b4;stroke:#1f77b4;" x="209.407879" xlink:href="#m4ebcfa6eb7" y="139.458094"/>
     <use style="fill:#1f77b4;stroke:#1f77b4;" x="203.157305" xlink:href="#m4ebcfa6eb7" y="137.61155"/>
     <use style="fill:#1f77b4;stroke:#1f77b4;" x="196.177561" xlink:href="#m4ebcfa6eb7" y="135.765005"/>
     <use style="fill:#1f77b4;stroke:#1f77b4;" x="187.646963" xlink:href="#m4ebcfa6eb7" y="133.937925"/>
     <use style="fill:#1f77b4;stroke:#1f77b4;" x="176.450553" xlink:href="#m4ebcfa6eb7" y="132.505388"/>
     <use style="fill:#1f77b4;stroke:#1f77b4;" x="162.45504" xlink:href="#m4ebcfa6eb7" y="132.756052"/>
     <use style="fill:#1f77b4;stroke:#1f77b4;" x="158.081442" xlink:href="#m4ebcfa6eb7" y="133.399441"/>
     <use style="fill:#1f77b4;stroke:#1f77b4;" x="153.7171" xlink:href="#m4ebcfa6eb7" y="134.346156"/>
     <use style="fill:#1f77b4;stroke:#1f77b4;" x="150.365768" xlink:href="#m4ebcfa6eb7" y="135.29287"/>
     <use style="fill:#1f77b4;stroke:#1f77b4;" x="147.078357" xlink:href="#m4ebcfa6eb7" y="136.417094"/>
     <use style="fill:#1f77b4;stroke:#1f77b4;" x="143.772384" xlink:href="#m4ebcfa6eb7" y="137.752109"/>
     <use style="fill:#1f77b4;stroke:#1f77b4;" x="140.394395" xlink:href="#m4ebcfa6eb7" y="139.33744"/>
     <use style="fill:#1f77b4;stroke:#1f77b4;" x="136.733761" xlink:href="#m4ebcfa6eb7" y="141.319103"/>
     <use style="fill:#1f77b4;stroke:#1f77b4;" x="132.757925" xlink:href="#m4ebcfa6eb7" y="143.796183"/>
     <use style="fill:#1f77b4;stroke:#1f77b4;" x="128.636158" xlink:href="#m4ebcfa6eb7" y="146.737714"/>
     <use style="fill:#1f77b4;stroke:#1f77b4;" x="124.335965" xlink:href="#m4ebcfa6eb7" y="150.230783"/>
     <use style="fill:#1f77b4;stroke:#1f77b4;" x="119.828523" xlink:href="#m4ebcfa6eb7" y="154.378803"/>
     <use style="fill:#1f77b4;stroke:#1f77b4;" x="115.087157" xlink:href="#m4ebcfa6eb7" y="159.304576"/>
     <use style="fill:#1f77b4;stroke:#1f77b4;" x="110.086396" xlink:href="#m4ebcfa6eb7" y="165.153931"/>
     <use style="fill:#1f77b4;stroke:#1f77b4;" x="104.801347" xlink:href="#m4ebcfa6eb7" y="172.100041"/>
     <use style="fill:#1f77b4;stroke:#1f77b4;" x="99.207256" xlink:href="#m4ebcfa6eb7" y="180.348546"/>
     <use style="fill:#1f77b4;stroke:#1f77b4;" x="93.443357" xlink:href="#m4ebcfa6eb7" y="189.857334"/>
     <use style="fill:#1f77b4;stroke:#1f77b4;" x="88.237567" xlink:href="#m4ebcfa6eb7" y="199.366122"/>
     <use style="fill:#1f77b4;stroke:#1f77b4;" x="83.468869" xlink:href="#m4ebcfa6eb7" y="208.87491"/>
     <use style="fill:#1f77b4;stroke:#1f77b4;" x="79.053793" xlink:href="#m4ebcfa6eb7" y="218.383698"/>
     <use style="fill:#1f77b4;stroke:#1f77b4;" x="74.931984" xlink:href="#m4ebcfa6eb7" y="227.892486"/>
     <use style="fill:#1f77b4;stroke:#1f77b4;" x="72.966466" xlink:href="#m4ebcfa6eb7" y="232.646881"/>
     <use style="fill:#1f77b4;stroke:#1f77b4;" x="71.058182" xlink:href="#m4ebcfa6eb7" y="237.401275"/>
     <use style="fill:#1f77b4;stroke:#1f77b4;" x="70.124209" xlink:href="#m4ebcfa6eb7" y="239.778472"/>
     <use style="fill:#1f77b4;stroke:#1f77b4;" x="69.662058" xlink:href="#m4ebcfa6eb7" y="240.96707"/>
     <use style="fill:#1f77b4;stroke:#1f77b4;" x="69.432165" xlink:href="#m4ebcfa6eb7" y="241.561369"/>
     <use style="fill:#1f77b4;stroke:#1f77b4;" x="69.341453" xlink:href="#m4ebcfa6eb7" y="241.796428"/>
     <use style="fill:#1f77b4;stroke:#1f77b4;" x="69.275574" xlink:href="#m4ebcfa6eb7" y="241.967337"/>
     <use style="fill:#1f77b4;stroke:#1f77b4;" x="69.234494" xlink:href="#m4ebcfa6eb7" y="242.073993"/>
     <use style="fill:#1f77b4;stroke:#1f77b4;" x="69.218182" xlink:href="#m4ebcfa6eb7" y="242.116364"/>
     <use style="fill:#1f77b4;stroke:#1f77b4;" x="69.261537" xlink:href="#m4ebcfa6eb7" y="242.003775"/>
     <use style="fill:#1f77b4;stroke:#1f77b4;" x="69.430129" xlink:href="#m4ebcfa6eb7" y="241.566642"/>
     <use style="fill:#1f77b4;stroke:#1f77b4;" x="69.771508" xlink:href="#m4ebcfa6eb7" y="240.684838"/>
     <use style="fill:#1f77b4;stroke:#1f77b4;" x="70.114627" xlink:href="#m4ebcfa6eb7" y="239.803033"/>
     <use style="fill:#1f77b4;stroke:#1f77b4;" x="70.502744" xlink:href="#m4ebcfa6eb7" y="238.811003"/>
     <use style="fill:#1f77b4;stroke:#1f77b4;" x="70.966576" xlink:href="#m4ebcfa6eb7" y="237.632966"/>
     <use style="fill:#1f77b4;stroke:#1f77b4;" x="71.521603" xlink:href="#m4ebcfa6eb7" y="236.234049"/>
     <use style="fill:#1f77b4;stroke:#1f77b4;" x="72.186785" xlink:href="#m4ebcfa6eb7" y="234.572834"/>
     <use style="fill:#1f77b4;stroke:#1f77b4;" x="72.985503" xlink:href="#m4ebcfa6eb7" y="232.600141"/>
     <use style="fill:#1f77b4;stroke:#1f77b4;" x="73.946804" xlink:href="#m4ebcfa6eb7" y="230.257568"/>
     <use style="fill:#1f77b4;stroke:#1f77b4;" x="75.107138" xlink:href="#m4ebcfa6eb7" y="227.475764"/>
     <use style="fill:#1f77b4;stroke:#1f77b4;" x="76.512792" xlink:href="#m4ebcfa6eb7" y="224.17237"/>
     <use style="fill:#1f77b4;stroke:#1f77b4;" x="78.223451" xlink:href="#m4ebcfa6eb7" y="220.249591"/>
     <use style="fill:#1f77b4;stroke:#1f77b4;" x="80.317577" xlink:href="#m4ebcfa6eb7" y="215.59129"/>
     <use style="fill:#1f77b4;stroke:#1f77b4;" x="82.900949" xlink:href="#m4ebcfa6eb7" y="210.059557"/>
     <use style="fill:#1f77b4;stroke:#1f77b4;" x="86.120991" xlink:href="#m4ebcfa6eb7" y="203.490625"/>
     <use style="fill:#1f77b4;stroke:#1f77b4;" x="90.19271" xlink:href="#m4ebcfa6eb7" y="195.690019"/>
     <use style="fill:#1f77b4;stroke:#1f77b4;" x="95.450522" xlink:href="#m4ebcfa6eb7" y="186.426798"/>
     <use style="fill:#1f77b4;stroke:#1f77b4;" x="101.456833" xlink:href="#m4ebcfa6eb7" y="176.91801"/>
     <use style="fill:#1f77b4;stroke:#1f77b4;" x="108.302257" xlink:href="#m4ebcfa6eb7" y="167.409222"/>
     <use style="fill:#1f77b4;stroke:#1f77b4;" x="116.38219" xlink:href="#m4ebcfa6eb7" y="157.900434"/>
     <use style="fill:#1f77b4;stroke:#1f77b4;" x="126.531942" xlink:href="#m4ebcfa6eb7" y="148.391645"/>
     <use style="fill:#1f77b4;stroke:#1f77b4;" x="141.314626" xlink:href="#m4ebcfa6eb7" y="138.882857"/>
     <use style="fill:#1f77b4;stroke:#1f77b4;" x="154.602516" xlink:href="#m4ebcfa6eb7" y="134.128463"/>
     <use style="fill:#1f77b4;stroke:#1f77b4;" x="160.09356" xlink:href="#m4ebcfa6eb7" y="133.066755"/>
     <use style="fill:#1f77b4;stroke:#1f77b4;" x="165.584605" xlink:href="#m4ebcfa6eb7" y="132.471557"/>
     <use style="fill:#1f77b4;stroke:#1f77b4;" x="171.07565" xlink:href="#m4ebcfa6eb7" y="132.301087"/>
     <use style="fill:#1f77b4;stroke:#1f77b4;" x="178.282647" xlink:href="#m4ebcfa6eb7" y="132.651888"/>
     <use style="fill:#1f77b4;stroke:#1f77b4;" x="187.741829" xlink:href="#m4ebcfa6eb7" y="133.955124"/>
     <use style="fill:#1f77b4;stroke:#1f77b4;" x="193.653819" xlink:href="#m4ebcfa6eb7" y="135.169172"/>
     <use style="fill:#1f77b4;stroke:#1f77b4;" x="198.883894" xlink:href="#m4ebcfa6eb7" y="136.448888"/>
     <use style="fill:#1f77b4;stroke:#1f77b4;" x="203.570045" xlink:href="#m4ebcfa6eb7" y="137.728605"/>
     <use style="fill:#1f77b4;stroke:#1f77b4;" x="208.983379" xlink:href="#m4ebcfa6eb7" y="139.328251"/>
     <use style="fill:#1f77b4;stroke:#1f77b4;" x="215.049007" xlink:href="#m4ebcfa6eb7" y="141.22783"/>
     <use style="fill:#1f77b4;stroke:#1f77b4;" x="222.030053" xlink:href="#m4ebcfa6eb7" y="143.483581"/>
     <use style="fill:#1f77b4;stroke:#1f77b4;" x="230.374181" xlink:href="#m4ebcfa6eb7" y="146.162285"/>
     <use style="fill:#1f77b4;stroke:#1f77b4;" x="241.062924" xlink:href="#m4ebcfa6eb7" y="149.343245"/>
     <use style="fill:#1f77b4;stroke:#1f77b4;" x="248.037844" xlink:href="#m4ebcfa6eb7" y="151.132536"/>
     <use style="fill:#1f77b4;stroke:#1f77b4;" x="256.303944" xlink:href="#m4ebcfa6eb7" y="152.822742"/>
     <use style="fill:#1f77b4;stroke:#1f77b4;" x="264.570044" xlink:href="#m4ebcfa6eb7" y="153.911061"/>
     <use style="fill:#1f77b4;stroke:#1f77b4;" x="275.4193" xlink:href="#m4ebcfa6eb7" y="154.187219"/>
     <use style="fill:#1f77b4;stroke:#1f77b4;" x="288.98087" xlink:href="#m4ebcfa6eb7" y="152.238055"/>
     <use style="fill:#1f77b4;stroke:#1f77b4;" x="299.56692" xlink:href="#m4ebcfa6eb7" y="148.568612"/>
     <use style="fill:#1f77b4;stroke:#1f77b4;" x="306.647009" xlink:href="#m4ebcfa6eb7" y="144.899169"/>
     <use style="fill:#1f77b4;stroke:#1f77b4;" x="312.891004" xlink:href="#m4ebcfa6eb7" y="140.771045"/>
     <use style="fill:#1f77b4;stroke:#1f77b4;" x="318.991421" xlink:href="#m4ebcfa6eb7" y="135.868898"/>
     <use style="fill:#1f77b4;stroke:#1f77b4;" x="325.094326" xlink:href="#m4ebcfa6eb7" y="130.047599"/>
     <use style="fill:#1f77b4;stroke:#1f77b4;" x="331.294729" xlink:href="#m4ebcfa6eb7" y="123.134805"/>
     <use style="fill:#1f77b4;stroke:#1f77b4;" x="337.661904" xlink:href="#m4ebcfa6eb7" y="114.925864"/>
     <use style="fill:#1f77b4;stroke:#1f77b4;" x="344.09917" xlink:href="#m4ebcfa6eb7" y="105.417076"/>
     <use style="fill:#1f77b4;stroke:#1f77b4;" x="349.810586" xlink:href="#m4ebcfa6eb7" y="95.908287"/>
     <use style="fill:#1f77b4;stroke:#1f77b4;" x="354.975969" xlink:href="#m4ebcfa6eb7" y="86.399499"/>
     <use style="fill:#1f77b4;stroke:#1f77b4;" x="359.71239" xlink:href="#m4ebcfa6eb7" y="76.890711"/>
     <use style="fill:#1f77b4;stroke:#1f77b4;" x="364.100963" xlink:href="#m4ebcfa6eb7" y="67.381923"/>
     <use style="fill:#1f77b4;stroke:#1f77b4;" x="368.200536" xlink:href="#m4ebcfa6eb7" y="57.873135"/>
     <use style="fill:#1f77b4;stroke:#1f77b4;" x="370.156207" xlink:href="#m4ebcfa6eb7" y="53.118741"/>
     <use style="fill:#1f77b4;stroke:#1f77b4;" x="372.055359" xlink:href="#m4ebcfa6eb7" y="48.364346"/>
     <use style="fill:#1f77b4;stroke:#1f77b4;" x="372.985007" xlink:href="#m4ebcfa6eb7" y="45.987149"/>
     <use style="fill:#1f77b4;stroke:#1f77b4;" x="373.445051" xlink:href="#m4ebcfa6eb7" y="44.798551"/>
     <use style="fill:#1f77b4;stroke:#1f77b4;" x="373.560737" xlink:href="#m4ebcfa6eb7" y="44.49839"/>
     <use style="fill:#1f77b4;stroke:#1f77b4;" x="373.577281" xlink:href="#m4ebcfa6eb7" y="44.455422"/>
     <use style="fill:#1f77b4;stroke:#1f77b4;" x="373.494714" xlink:href="#m4ebcfa6eb7" y="44.669763"/>
     <use style="fill:#1f77b4;stroke:#1f77b4;" x="373.23564" xlink:href="#m4ebcfa6eb7" y="45.340608"/>
     <use style="fill:#1f77b4;stroke:#1f77b4;" x="372.838341" xlink:href="#m4ebcfa6eb7" y="46.364382"/>
     <use style="fill:#1f77b4;stroke:#1f77b4;" x="372.413621" xlink:href="#m4ebcfa6eb7" y="47.452141"/>
     <use style="fill:#1f77b4;stroke:#1f77b4;" x="371.932569" xlink:href="#m4ebcfa6eb7" y="48.67587"/>
     <use style="fill:#1f77b4;stroke:#1f77b4;" x="371.356778" xlink:href="#m4ebcfa6eb7" y="50.129048"/>
     <use style="fill:#1f77b4;stroke:#1f77b4;" x="370.666474" xlink:href="#m4ebcfa6eb7" y="51.854697"/>
     <use style="fill:#1f77b4;stroke:#1f77b4;" x="369.837248" xlink:href="#m4ebcfa6eb7" y="53.903906"/>
     <use style="fill:#1f77b4;stroke:#1f77b4;" x="368.838714" xlink:href="#m4ebcfa6eb7" y="56.337341"/>
     <use style="fill:#1f77b4;stroke:#1f77b4;" x="367.632665" xlink:href="#m4ebcfa6eb7" y="59.227045"/>
     <use style="fill:#1f77b4;stroke:#1f77b4;" x="366.170453" xlink:href="#m4ebcfa6eb7" y="62.658568"/>
     <use style="fill:#1f77b4;stroke:#1f77b4;" x="364.389134" xlink:href="#m4ebcfa6eb7" y="66.733502"/>
     <use style="fill:#1f77b4;stroke:#1f77b4;" x="362.205596" xlink:href="#m4ebcfa6eb7" y="71.572487"/>
     <use style="fill:#1f77b4;stroke:#1f77b4;" x="359.507153" xlink:href="#m4ebcfa6eb7" y="77.318781"/>
     <use style="fill:#1f77b4;stroke:#1f77b4;" x="356.135535" xlink:href="#m4ebcfa6eb7" y="84.142505"/>
     <use style="fill:#1f77b4;stroke:#1f77b4;" x="351.857434" xlink:href="#m4ebcfa6eb7" y="92.245677"/>
     <use style="fill:#1f77b4;stroke:#1f77b4;" x="346.373375" xlink:href="#m4ebcfa6eb7" y="101.754465"/>
     <use style="fill:#1f77b4;stroke:#1f77b4;" x="340.242826" xlink:href="#m4ebcfa6eb7" y="111.263254"/>
     <use style="fill:#1f77b4;stroke:#1f77b4;" x="333.221726" xlink:href="#m4ebcfa6eb7" y="120.772042"/>
     <use style="fill:#1f77b4;stroke:#1f77b4;" x="324.867708" xlink:href="#m4ebcfa6eb7" y="130.28083"/>
     <use style="fill:#1f77b4;stroke:#1f77b4;" x="314.205135" xlink:href="#m4ebcfa6eb7" y="139.789618"/>
     <use style="fill:#1f77b4;stroke:#1f77b4;" x="297.868547" xlink:href="#m4ebcfa6eb7" y="149.298406"/>
     <use style="fill:#1f77b4;stroke:#1f77b4;" x="291.067006" xlink:href="#m4ebcfa6eb7" y="151.675603"/>
    </g>
   </g>
   <g id="patch_3">
    <path d="M 54 252 
L 54 34.56 
" style="fill:none;stroke:#000000;stroke-linecap:square;stroke-linejoin:miter;stroke-width:0.8;"/>
   </g>
   <g id="patch_4">
    <path d="M 388.8 252 
L 388.8 34.56 
" style="fill:none;stroke:#000000;stroke-linecap:square;stroke-linejoin:miter;stroke-width:0.8;"/>
   </g>
   <g id="patch_5">
    <path d="M 54 252 
L 388.8 252 
" style="fill:none;stroke:#000000;stroke-linecap:square;stroke-linejoin:miter;stroke-width:0.8;"/>
   </g>
   <g id="patch_6">
    <path d="M 54 34.56 
L 388.8 34.56 
" style="fill:none;stroke:#000000;stroke-linecap:square;stroke-linejoin:miter;stroke-width:0.8;"/>
   </g>
  </g>
 </g>
 <defs>
  <clipPath id="p3d2f4aa232">
   <rect height="217.44" width="334.8" x="54" y="34.56"/>
  </clipPath>
 </defs>
</svg>
